<mxfile host="app.diagrams.net" modified="2023-06-04T17:19:13.135Z" agent="Mozilla/5.0 (Windows NT 10.0; Win64; x64) AppleWebKit/537.36 (KHTML, like Gecko) Chrome/113.0.0.0 Safari/537.36 Edg/113.0.1774.57" etag="q1hQIm4ZvKn-Of3z5qNb" version="21.3.6" type="github">
  <diagram name="Page-1" id="idr1a6ENqdIq1djeaAYZ">
    <mxGraphModel dx="883" dy="522" grid="1" gridSize="10" guides="1" tooltips="1" connect="1" arrows="1" fold="1" page="1" pageScale="1" pageWidth="850" pageHeight="1100" math="0" shadow="0">
      <root>
        <mxCell id="0" />
        <mxCell id="1" parent="0" />
        <mxCell id="Vrc9euXCKkjH1-e3UW8O-1" value="&lt;font color=&quot;#330066&quot;&gt;Employee&lt;/font&gt;" style="shape=table;startSize=30;container=1;collapsible=1;childLayout=tableLayout;fixedRows=1;rowLines=0;fontStyle=1;align=center;resizeLast=1;html=1;fillColor=#d0cee2;strokeColor=#56517e;rounded=1;" vertex="1" parent="1">
          <mxGeometry x="80" y="60" width="180" height="180" as="geometry" />
        </mxCell>
        <mxCell id="Vrc9euXCKkjH1-e3UW8O-2" value="" style="shape=tableRow;horizontal=0;startSize=0;swimlaneHead=0;swimlaneBody=0;fillColor=none;collapsible=0;dropTarget=0;points=[[0,0.5],[1,0.5]];portConstraint=eastwest;top=0;left=0;right=0;bottom=1;rounded=1;" vertex="1" parent="Vrc9euXCKkjH1-e3UW8O-1">
          <mxGeometry y="30" width="180" height="30" as="geometry" />
        </mxCell>
        <mxCell id="Vrc9euXCKkjH1-e3UW8O-3" value="PK" style="shape=partialRectangle;connectable=0;fillColor=none;top=0;left=0;bottom=0;right=0;fontStyle=1;overflow=hidden;whiteSpace=wrap;html=1;rounded=1;" vertex="1" parent="Vrc9euXCKkjH1-e3UW8O-2">
          <mxGeometry width="30" height="30" as="geometry">
            <mxRectangle width="30" height="30" as="alternateBounds" />
          </mxGeometry>
        </mxCell>
        <mxCell id="Vrc9euXCKkjH1-e3UW8O-4" value="Useraname" style="shape=partialRectangle;connectable=0;fillColor=none;top=0;left=0;bottom=0;right=0;align=left;spacingLeft=6;fontStyle=5;overflow=hidden;whiteSpace=wrap;html=1;rounded=1;" vertex="1" parent="Vrc9euXCKkjH1-e3UW8O-2">
          <mxGeometry x="30" width="150" height="30" as="geometry">
            <mxRectangle width="150" height="30" as="alternateBounds" />
          </mxGeometry>
        </mxCell>
        <mxCell id="Vrc9euXCKkjH1-e3UW8O-5" value="" style="shape=tableRow;horizontal=0;startSize=0;swimlaneHead=0;swimlaneBody=0;fillColor=none;collapsible=0;dropTarget=0;points=[[0,0.5],[1,0.5]];portConstraint=eastwest;top=0;left=0;right=0;bottom=0;rounded=1;" vertex="1" parent="Vrc9euXCKkjH1-e3UW8O-1">
          <mxGeometry y="60" width="180" height="30" as="geometry" />
        </mxCell>
        <mxCell id="Vrc9euXCKkjH1-e3UW8O-6" value="" style="shape=partialRectangle;connectable=0;fillColor=none;top=0;left=0;bottom=0;right=0;editable=1;overflow=hidden;whiteSpace=wrap;html=1;rounded=1;" vertex="1" parent="Vrc9euXCKkjH1-e3UW8O-5">
          <mxGeometry width="30" height="30" as="geometry">
            <mxRectangle width="30" height="30" as="alternateBounds" />
          </mxGeometry>
        </mxCell>
        <mxCell id="Vrc9euXCKkjH1-e3UW8O-7" value="name" style="shape=partialRectangle;connectable=0;fillColor=none;top=0;left=0;bottom=0;right=0;align=left;spacingLeft=6;overflow=hidden;whiteSpace=wrap;html=1;rounded=1;" vertex="1" parent="Vrc9euXCKkjH1-e3UW8O-5">
          <mxGeometry x="30" width="150" height="30" as="geometry">
            <mxRectangle width="150" height="30" as="alternateBounds" />
          </mxGeometry>
        </mxCell>
        <mxCell id="Vrc9euXCKkjH1-e3UW8O-8" value="" style="shape=tableRow;horizontal=0;startSize=0;swimlaneHead=0;swimlaneBody=0;fillColor=none;collapsible=0;dropTarget=0;points=[[0,0.5],[1,0.5]];portConstraint=eastwest;top=0;left=0;right=0;bottom=0;rounded=1;" vertex="1" parent="Vrc9euXCKkjH1-e3UW8O-1">
          <mxGeometry y="90" width="180" height="30" as="geometry" />
        </mxCell>
        <mxCell id="Vrc9euXCKkjH1-e3UW8O-9" value="" style="shape=partialRectangle;connectable=0;fillColor=none;top=0;left=0;bottom=0;right=0;editable=1;overflow=hidden;whiteSpace=wrap;html=1;rounded=1;" vertex="1" parent="Vrc9euXCKkjH1-e3UW8O-8">
          <mxGeometry width="30" height="30" as="geometry">
            <mxRectangle width="30" height="30" as="alternateBounds" />
          </mxGeometry>
        </mxCell>
        <mxCell id="Vrc9euXCKkjH1-e3UW8O-10" value="fathersName" style="shape=partialRectangle;connectable=0;fillColor=none;top=0;left=0;bottom=0;right=0;align=left;spacingLeft=6;overflow=hidden;whiteSpace=wrap;html=1;rounded=1;" vertex="1" parent="Vrc9euXCKkjH1-e3UW8O-8">
          <mxGeometry x="30" width="150" height="30" as="geometry">
            <mxRectangle width="150" height="30" as="alternateBounds" />
          </mxGeometry>
        </mxCell>
        <mxCell id="Vrc9euXCKkjH1-e3UW8O-11" value="" style="shape=tableRow;horizontal=0;startSize=0;swimlaneHead=0;swimlaneBody=0;fillColor=none;collapsible=0;dropTarget=0;points=[[0,0.5],[1,0.5]];portConstraint=eastwest;top=0;left=0;right=0;bottom=0;rounded=1;" vertex="1" parent="Vrc9euXCKkjH1-e3UW8O-1">
          <mxGeometry y="120" width="180" height="30" as="geometry" />
        </mxCell>
        <mxCell id="Vrc9euXCKkjH1-e3UW8O-12" value="" style="shape=partialRectangle;connectable=0;fillColor=none;top=0;left=0;bottom=0;right=0;editable=1;overflow=hidden;whiteSpace=wrap;html=1;rounded=1;" vertex="1" parent="Vrc9euXCKkjH1-e3UW8O-11">
          <mxGeometry width="30" height="30" as="geometry">
            <mxRectangle width="30" height="30" as="alternateBounds" />
          </mxGeometry>
        </mxCell>
        <mxCell id="Vrc9euXCKkjH1-e3UW8O-13" value="grandFathersName" style="shape=partialRectangle;connectable=0;fillColor=none;top=0;left=0;bottom=0;right=0;align=left;spacingLeft=6;overflow=hidden;whiteSpace=wrap;html=1;rounded=1;" vertex="1" parent="Vrc9euXCKkjH1-e3UW8O-11">
          <mxGeometry x="30" width="150" height="30" as="geometry">
            <mxRectangle width="150" height="30" as="alternateBounds" />
          </mxGeometry>
        </mxCell>
        <mxCell id="Vrc9euXCKkjH1-e3UW8O-14" value="" style="shape=tableRow;horizontal=0;startSize=0;swimlaneHead=0;swimlaneBody=0;fillColor=none;collapsible=0;dropTarget=0;points=[[0,0.5],[1,0.5]];portConstraint=eastwest;top=0;left=0;right=0;bottom=0;rounded=1;" vertex="1" parent="Vrc9euXCKkjH1-e3UW8O-1">
          <mxGeometry y="150" width="180" height="30" as="geometry" />
        </mxCell>
        <mxCell id="Vrc9euXCKkjH1-e3UW8O-15" value="" style="shape=partialRectangle;connectable=0;fillColor=none;top=0;left=0;bottom=0;right=0;editable=1;overflow=hidden;whiteSpace=wrap;html=1;rounded=1;" vertex="1" parent="Vrc9euXCKkjH1-e3UW8O-14">
          <mxGeometry width="30" height="30" as="geometry">
            <mxRectangle width="30" height="30" as="alternateBounds" />
          </mxGeometry>
        </mxCell>
        <mxCell id="Vrc9euXCKkjH1-e3UW8O-16" value="Job" style="shape=partialRectangle;connectable=0;fillColor=none;top=0;left=0;bottom=0;right=0;align=left;spacingLeft=6;overflow=hidden;whiteSpace=wrap;html=1;rounded=1;" vertex="1" parent="Vrc9euXCKkjH1-e3UW8O-14">
          <mxGeometry x="30" width="150" height="30" as="geometry">
            <mxRectangle width="150" height="30" as="alternateBounds" />
          </mxGeometry>
        </mxCell>
        <mxCell id="Vrc9euXCKkjH1-e3UW8O-17" value="&lt;font color=&quot;#330066&quot;&gt;Resident&lt;/font&gt;" style="shape=table;startSize=38;container=1;collapsible=1;childLayout=tableLayout;fixedRows=1;rowLines=0;fontStyle=1;align=center;resizeLast=1;html=1;fillColor=#d0cee2;strokeColor=#56517e;rounded=1;" vertex="1" parent="1">
          <mxGeometry x="620" y="80" width="180" height="548" as="geometry" />
        </mxCell>
        <mxCell id="Vrc9euXCKkjH1-e3UW8O-18" value="" style="shape=tableRow;horizontal=0;startSize=0;swimlaneHead=0;swimlaneBody=0;fillColor=none;collapsible=0;dropTarget=0;points=[[0,0.5],[1,0.5]];portConstraint=eastwest;top=0;left=0;right=0;bottom=1;rounded=1;" vertex="1" parent="Vrc9euXCKkjH1-e3UW8O-17">
          <mxGeometry y="38" width="180" height="30" as="geometry" />
        </mxCell>
        <mxCell id="Vrc9euXCKkjH1-e3UW8O-19" value="PK" style="shape=partialRectangle;connectable=0;fillColor=none;top=0;left=0;bottom=0;right=0;fontStyle=1;overflow=hidden;whiteSpace=wrap;html=1;rounded=1;" vertex="1" parent="Vrc9euXCKkjH1-e3UW8O-18">
          <mxGeometry width="30" height="30" as="geometry">
            <mxRectangle width="30" height="30" as="alternateBounds" />
          </mxGeometry>
        </mxCell>
        <mxCell id="Vrc9euXCKkjH1-e3UW8O-20" value="ResidetID" style="shape=partialRectangle;connectable=0;fillColor=none;top=0;left=0;bottom=0;right=0;align=left;spacingLeft=6;fontStyle=5;overflow=hidden;whiteSpace=wrap;html=1;rounded=1;" vertex="1" parent="Vrc9euXCKkjH1-e3UW8O-18">
          <mxGeometry x="30" width="150" height="30" as="geometry">
            <mxRectangle width="150" height="30" as="alternateBounds" />
          </mxGeometry>
        </mxCell>
        <mxCell id="Vrc9euXCKkjH1-e3UW8O-21" value="" style="shape=tableRow;horizontal=0;startSize=0;swimlaneHead=0;swimlaneBody=0;fillColor=none;collapsible=0;dropTarget=0;points=[[0,0.5],[1,0.5]];portConstraint=eastwest;top=0;left=0;right=0;bottom=0;rounded=1;" vertex="1" parent="Vrc9euXCKkjH1-e3UW8O-17">
          <mxGeometry y="68" width="180" height="30" as="geometry" />
        </mxCell>
        <mxCell id="Vrc9euXCKkjH1-e3UW8O-22" value="" style="shape=partialRectangle;connectable=0;fillColor=none;top=0;left=0;bottom=0;right=0;editable=1;overflow=hidden;whiteSpace=wrap;html=1;rounded=1;" vertex="1" parent="Vrc9euXCKkjH1-e3UW8O-21">
          <mxGeometry width="30" height="30" as="geometry">
            <mxRectangle width="30" height="30" as="alternateBounds" />
          </mxGeometry>
        </mxCell>
        <mxCell id="Vrc9euXCKkjH1-e3UW8O-23" value="name" style="shape=partialRectangle;connectable=0;fillColor=none;top=0;left=0;bottom=0;right=0;align=left;spacingLeft=6;overflow=hidden;whiteSpace=wrap;html=1;rounded=1;" vertex="1" parent="Vrc9euXCKkjH1-e3UW8O-21">
          <mxGeometry x="30" width="150" height="30" as="geometry">
            <mxRectangle width="150" height="30" as="alternateBounds" />
          </mxGeometry>
        </mxCell>
        <mxCell id="Vrc9euXCKkjH1-e3UW8O-24" value="" style="shape=tableRow;horizontal=0;startSize=0;swimlaneHead=0;swimlaneBody=0;fillColor=none;collapsible=0;dropTarget=0;points=[[0,0.5],[1,0.5]];portConstraint=eastwest;top=0;left=0;right=0;bottom=0;rounded=1;" vertex="1" parent="Vrc9euXCKkjH1-e3UW8O-17">
          <mxGeometry y="98" width="180" height="30" as="geometry" />
        </mxCell>
        <mxCell id="Vrc9euXCKkjH1-e3UW8O-25" value="" style="shape=partialRectangle;connectable=0;fillColor=none;top=0;left=0;bottom=0;right=0;editable=1;overflow=hidden;whiteSpace=wrap;html=1;rounded=1;" vertex="1" parent="Vrc9euXCKkjH1-e3UW8O-24">
          <mxGeometry width="30" height="30" as="geometry">
            <mxRectangle width="30" height="30" as="alternateBounds" />
          </mxGeometry>
        </mxCell>
        <mxCell id="Vrc9euXCKkjH1-e3UW8O-26" value="fathersName" style="shape=partialRectangle;connectable=0;fillColor=none;top=0;left=0;bottom=0;right=0;align=left;spacingLeft=6;overflow=hidden;whiteSpace=wrap;html=1;rounded=1;" vertex="1" parent="Vrc9euXCKkjH1-e3UW8O-24">
          <mxGeometry x="30" width="150" height="30" as="geometry">
            <mxRectangle width="150" height="30" as="alternateBounds" />
          </mxGeometry>
        </mxCell>
        <mxCell id="Vrc9euXCKkjH1-e3UW8O-27" value="" style="shape=tableRow;horizontal=0;startSize=0;swimlaneHead=0;swimlaneBody=0;fillColor=none;collapsible=0;dropTarget=0;points=[[0,0.5],[1,0.5]];portConstraint=eastwest;top=0;left=0;right=0;bottom=0;rounded=1;" vertex="1" parent="Vrc9euXCKkjH1-e3UW8O-17">
          <mxGeometry y="128" width="180" height="30" as="geometry" />
        </mxCell>
        <mxCell id="Vrc9euXCKkjH1-e3UW8O-28" value="" style="shape=partialRectangle;connectable=0;fillColor=none;top=0;left=0;bottom=0;right=0;editable=1;overflow=hidden;whiteSpace=wrap;html=1;rounded=1;" vertex="1" parent="Vrc9euXCKkjH1-e3UW8O-27">
          <mxGeometry width="30" height="30" as="geometry">
            <mxRectangle width="30" height="30" as="alternateBounds" />
          </mxGeometry>
        </mxCell>
        <mxCell id="Vrc9euXCKkjH1-e3UW8O-29" value="grandFathersName" style="shape=partialRectangle;connectable=0;fillColor=none;top=0;left=0;bottom=0;right=0;align=left;spacingLeft=6;overflow=hidden;whiteSpace=wrap;html=1;rounded=1;" vertex="1" parent="Vrc9euXCKkjH1-e3UW8O-27">
          <mxGeometry x="30" width="150" height="30" as="geometry">
            <mxRectangle width="150" height="30" as="alternateBounds" />
          </mxGeometry>
        </mxCell>
        <mxCell id="Vrc9euXCKkjH1-e3UW8O-30" value="" style="shape=tableRow;horizontal=0;startSize=0;swimlaneHead=0;swimlaneBody=0;fillColor=none;collapsible=0;dropTarget=0;points=[[0,0.5],[1,0.5]];portConstraint=eastwest;top=0;left=0;right=0;bottom=0;rounded=1;" vertex="1" parent="Vrc9euXCKkjH1-e3UW8O-17">
          <mxGeometry y="158" width="180" height="30" as="geometry" />
        </mxCell>
        <mxCell id="Vrc9euXCKkjH1-e3UW8O-31" value="" style="shape=partialRectangle;connectable=0;fillColor=none;top=0;left=0;bottom=0;right=0;editable=1;overflow=hidden;whiteSpace=wrap;html=1;rounded=1;" vertex="1" parent="Vrc9euXCKkjH1-e3UW8O-30">
          <mxGeometry width="30" height="30" as="geometry">
            <mxRectangle width="30" height="30" as="alternateBounds" />
          </mxGeometry>
        </mxCell>
        <mxCell id="Vrc9euXCKkjH1-e3UW8O-32" value="DOB" style="shape=partialRectangle;connectable=0;fillColor=none;top=0;left=0;bottom=0;right=0;align=left;spacingLeft=6;overflow=hidden;whiteSpace=wrap;html=1;rounded=1;" vertex="1" parent="Vrc9euXCKkjH1-e3UW8O-30">
          <mxGeometry x="30" width="150" height="30" as="geometry">
            <mxRectangle width="150" height="30" as="alternateBounds" />
          </mxGeometry>
        </mxCell>
        <mxCell id="Vrc9euXCKkjH1-e3UW8O-33" value="" style="shape=tableRow;horizontal=0;startSize=0;swimlaneHead=0;swimlaneBody=0;fillColor=none;collapsible=0;dropTarget=0;points=[[0,0.5],[1,0.5]];portConstraint=eastwest;top=0;left=0;right=0;bottom=0;rounded=1;" vertex="1" parent="Vrc9euXCKkjH1-e3UW8O-17">
          <mxGeometry y="188" width="180" height="30" as="geometry" />
        </mxCell>
        <mxCell id="Vrc9euXCKkjH1-e3UW8O-34" value="" style="shape=partialRectangle;connectable=0;fillColor=none;top=0;left=0;bottom=0;right=0;editable=1;overflow=hidden;whiteSpace=wrap;html=1;rounded=1;" vertex="1" parent="Vrc9euXCKkjH1-e3UW8O-33">
          <mxGeometry width="30" height="30" as="geometry">
            <mxRectangle width="30" height="30" as="alternateBounds" />
          </mxGeometry>
        </mxCell>
        <mxCell id="Vrc9euXCKkjH1-e3UW8O-35" value="POB" style="shape=partialRectangle;connectable=0;fillColor=none;top=0;left=0;bottom=0;right=0;align=left;spacingLeft=6;overflow=hidden;whiteSpace=wrap;html=1;rounded=1;" vertex="1" parent="Vrc9euXCKkjH1-e3UW8O-33">
          <mxGeometry x="30" width="150" height="30" as="geometry">
            <mxRectangle width="150" height="30" as="alternateBounds" />
          </mxGeometry>
        </mxCell>
        <mxCell id="Vrc9euXCKkjH1-e3UW8O-36" value="" style="shape=tableRow;horizontal=0;startSize=0;swimlaneHead=0;swimlaneBody=0;fillColor=none;collapsible=0;dropTarget=0;points=[[0,0.5],[1,0.5]];portConstraint=eastwest;top=0;left=0;right=0;bottom=0;rounded=1;" vertex="1" parent="Vrc9euXCKkjH1-e3UW8O-17">
          <mxGeometry y="218" width="180" height="30" as="geometry" />
        </mxCell>
        <mxCell id="Vrc9euXCKkjH1-e3UW8O-37" value="" style="shape=partialRectangle;connectable=0;fillColor=none;top=0;left=0;bottom=0;right=0;editable=1;overflow=hidden;whiteSpace=wrap;html=1;rounded=1;" vertex="1" parent="Vrc9euXCKkjH1-e3UW8O-36">
          <mxGeometry width="30" height="30" as="geometry">
            <mxRectangle width="30" height="30" as="alternateBounds" />
          </mxGeometry>
        </mxCell>
        <mxCell id="Vrc9euXCKkjH1-e3UW8O-38" value="SEX" style="shape=partialRectangle;connectable=0;fillColor=none;top=0;left=0;bottom=0;right=0;align=left;spacingLeft=6;overflow=hidden;whiteSpace=wrap;html=1;rounded=1;" vertex="1" parent="Vrc9euXCKkjH1-e3UW8O-36">
          <mxGeometry x="30" width="150" height="30" as="geometry">
            <mxRectangle width="150" height="30" as="alternateBounds" />
          </mxGeometry>
        </mxCell>
        <mxCell id="Vrc9euXCKkjH1-e3UW8O-39" value="" style="shape=tableRow;horizontal=0;startSize=0;swimlaneHead=0;swimlaneBody=0;fillColor=none;collapsible=0;dropTarget=0;points=[[0,0.5],[1,0.5]];portConstraint=eastwest;top=0;left=0;right=0;bottom=0;rounded=1;" vertex="1" parent="Vrc9euXCKkjH1-e3UW8O-17">
          <mxGeometry y="248" width="180" height="30" as="geometry" />
        </mxCell>
        <mxCell id="Vrc9euXCKkjH1-e3UW8O-40" value="" style="shape=partialRectangle;connectable=0;fillColor=none;top=0;left=0;bottom=0;right=0;editable=1;overflow=hidden;whiteSpace=wrap;html=1;rounded=1;" vertex="1" parent="Vrc9euXCKkjH1-e3UW8O-39">
          <mxGeometry width="30" height="30" as="geometry">
            <mxRectangle width="30" height="30" as="alternateBounds" />
          </mxGeometry>
        </mxCell>
        <mxCell id="Vrc9euXCKkjH1-e3UW8O-41" value="PhoneNumber" style="shape=partialRectangle;connectable=0;fillColor=none;top=0;left=0;bottom=0;right=0;align=left;spacingLeft=6;overflow=hidden;whiteSpace=wrap;html=1;rounded=1;" vertex="1" parent="Vrc9euXCKkjH1-e3UW8O-39">
          <mxGeometry x="30" width="150" height="30" as="geometry">
            <mxRectangle width="150" height="30" as="alternateBounds" />
          </mxGeometry>
        </mxCell>
        <mxCell id="Vrc9euXCKkjH1-e3UW8O-42" value="" style="shape=tableRow;horizontal=0;startSize=0;swimlaneHead=0;swimlaneBody=0;fillColor=none;collapsible=0;dropTarget=0;points=[[0,0.5],[1,0.5]];portConstraint=eastwest;top=0;left=0;right=0;bottom=0;rounded=1;" vertex="1" parent="Vrc9euXCKkjH1-e3UW8O-17">
          <mxGeometry y="278" width="180" height="30" as="geometry" />
        </mxCell>
        <mxCell id="Vrc9euXCKkjH1-e3UW8O-43" value="" style="shape=partialRectangle;connectable=0;fillColor=none;top=0;left=0;bottom=0;right=0;editable=1;overflow=hidden;whiteSpace=wrap;html=1;rounded=1;" vertex="1" parent="Vrc9euXCKkjH1-e3UW8O-42">
          <mxGeometry width="30" height="30" as="geometry">
            <mxRectangle width="30" height="30" as="alternateBounds" />
          </mxGeometry>
        </mxCell>
        <mxCell id="Vrc9euXCKkjH1-e3UW8O-44" value="Citizenship" style="shape=partialRectangle;connectable=0;fillColor=none;top=0;left=0;bottom=0;right=0;align=left;spacingLeft=6;overflow=hidden;whiteSpace=wrap;html=1;rounded=1;" vertex="1" parent="Vrc9euXCKkjH1-e3UW8O-42">
          <mxGeometry x="30" width="150" height="30" as="geometry">
            <mxRectangle width="150" height="30" as="alternateBounds" />
          </mxGeometry>
        </mxCell>
        <mxCell id="Vrc9euXCKkjH1-e3UW8O-45" value="" style="shape=tableRow;horizontal=0;startSize=0;swimlaneHead=0;swimlaneBody=0;fillColor=none;collapsible=0;dropTarget=0;points=[[0,0.5],[1,0.5]];portConstraint=eastwest;top=0;left=0;right=0;bottom=0;rounded=1;" vertex="1" parent="Vrc9euXCKkjH1-e3UW8O-17">
          <mxGeometry y="308" width="180" height="30" as="geometry" />
        </mxCell>
        <mxCell id="Vrc9euXCKkjH1-e3UW8O-46" value="" style="shape=partialRectangle;connectable=0;fillColor=none;top=0;left=0;bottom=0;right=0;editable=1;overflow=hidden;whiteSpace=wrap;html=1;rounded=1;" vertex="1" parent="Vrc9euXCKkjH1-e3UW8O-45">
          <mxGeometry width="30" height="30" as="geometry">
            <mxRectangle width="30" height="30" as="alternateBounds" />
          </mxGeometry>
        </mxCell>
        <mxCell id="Vrc9euXCKkjH1-e3UW8O-47" value="Job" style="shape=partialRectangle;connectable=0;fillColor=none;top=0;left=0;bottom=0;right=0;align=left;spacingLeft=6;overflow=hidden;whiteSpace=wrap;html=1;rounded=1;" vertex="1" parent="Vrc9euXCKkjH1-e3UW8O-45">
          <mxGeometry x="30" width="150" height="30" as="geometry">
            <mxRectangle width="150" height="30" as="alternateBounds" />
          </mxGeometry>
        </mxCell>
        <mxCell id="Vrc9euXCKkjH1-e3UW8O-48" value="" style="shape=tableRow;horizontal=0;startSize=0;swimlaneHead=0;swimlaneBody=0;fillColor=none;collapsible=0;dropTarget=0;points=[[0,0.5],[1,0.5]];portConstraint=eastwest;top=0;left=0;right=0;bottom=0;rounded=1;" vertex="1" parent="Vrc9euXCKkjH1-e3UW8O-17">
          <mxGeometry y="338" width="180" height="30" as="geometry" />
        </mxCell>
        <mxCell id="Vrc9euXCKkjH1-e3UW8O-49" value="" style="shape=partialRectangle;connectable=0;fillColor=none;top=0;left=0;bottom=0;right=0;editable=1;overflow=hidden;whiteSpace=wrap;html=1;rounded=1;" vertex="1" parent="Vrc9euXCKkjH1-e3UW8O-48">
          <mxGeometry width="30" height="30" as="geometry">
            <mxRectangle width="30" height="30" as="alternateBounds" />
          </mxGeometry>
        </mxCell>
        <mxCell id="Vrc9euXCKkjH1-e3UW8O-50" value="MaritalStatus" style="shape=partialRectangle;connectable=0;fillColor=none;top=0;left=0;bottom=0;right=0;align=left;spacingLeft=6;overflow=hidden;whiteSpace=wrap;html=1;rounded=1;" vertex="1" parent="Vrc9euXCKkjH1-e3UW8O-48">
          <mxGeometry x="30" width="150" height="30" as="geometry">
            <mxRectangle width="150" height="30" as="alternateBounds" />
          </mxGeometry>
        </mxCell>
        <mxCell id="Vrc9euXCKkjH1-e3UW8O-51" value="" style="shape=tableRow;horizontal=0;startSize=0;swimlaneHead=0;swimlaneBody=0;fillColor=none;collapsible=0;dropTarget=0;points=[[0,0.5],[1,0.5]];portConstraint=eastwest;top=0;left=0;right=0;bottom=0;rounded=1;" vertex="1" parent="Vrc9euXCKkjH1-e3UW8O-17">
          <mxGeometry y="368" width="180" height="30" as="geometry" />
        </mxCell>
        <mxCell id="Vrc9euXCKkjH1-e3UW8O-52" value="" style="shape=partialRectangle;connectable=0;fillColor=none;top=0;left=0;bottom=0;right=0;editable=1;overflow=hidden;whiteSpace=wrap;html=1;rounded=1;" vertex="1" parent="Vrc9euXCKkjH1-e3UW8O-51">
          <mxGeometry width="30" height="30" as="geometry">
            <mxRectangle width="30" height="30" as="alternateBounds" />
          </mxGeometry>
        </mxCell>
        <mxCell id="Vrc9euXCKkjH1-e3UW8O-53" value="BloodType" style="shape=partialRectangle;connectable=0;fillColor=none;top=0;left=0;bottom=0;right=0;align=left;spacingLeft=6;overflow=hidden;whiteSpace=wrap;html=1;rounded=1;" vertex="1" parent="Vrc9euXCKkjH1-e3UW8O-51">
          <mxGeometry x="30" width="150" height="30" as="geometry">
            <mxRectangle width="150" height="30" as="alternateBounds" />
          </mxGeometry>
        </mxCell>
        <mxCell id="Vrc9euXCKkjH1-e3UW8O-54" value="" style="shape=tableRow;horizontal=0;startSize=0;swimlaneHead=0;swimlaneBody=0;fillColor=none;collapsible=0;dropTarget=0;points=[[0,0.5],[1,0.5]];portConstraint=eastwest;top=0;left=0;right=0;bottom=0;rounded=1;" vertex="1" parent="Vrc9euXCKkjH1-e3UW8O-17">
          <mxGeometry y="398" width="180" height="30" as="geometry" />
        </mxCell>
        <mxCell id="Vrc9euXCKkjH1-e3UW8O-55" value="" style="shape=partialRectangle;connectable=0;fillColor=none;top=0;left=0;bottom=0;right=0;editable=1;overflow=hidden;whiteSpace=wrap;html=1;rounded=1;" vertex="1" parent="Vrc9euXCKkjH1-e3UW8O-54">
          <mxGeometry width="30" height="30" as="geometry">
            <mxRectangle width="30" height="30" as="alternateBounds" />
          </mxGeometry>
        </mxCell>
        <mxCell id="Vrc9euXCKkjH1-e3UW8O-56" value="MothersName" style="shape=partialRectangle;connectable=0;fillColor=none;top=0;left=0;bottom=0;right=0;align=left;spacingLeft=6;overflow=hidden;whiteSpace=wrap;html=1;rounded=1;" vertex="1" parent="Vrc9euXCKkjH1-e3UW8O-54">
          <mxGeometry x="30" width="150" height="30" as="geometry">
            <mxRectangle width="150" height="30" as="alternateBounds" />
          </mxGeometry>
        </mxCell>
        <mxCell id="Vrc9euXCKkjH1-e3UW8O-57" value="" style="shape=tableRow;horizontal=0;startSize=0;swimlaneHead=0;swimlaneBody=0;fillColor=none;collapsible=0;dropTarget=0;points=[[0,0.5],[1,0.5]];portConstraint=eastwest;top=0;left=0;right=0;bottom=0;rounded=1;" vertex="1" parent="Vrc9euXCKkjH1-e3UW8O-17">
          <mxGeometry y="428" width="180" height="30" as="geometry" />
        </mxCell>
        <mxCell id="Vrc9euXCKkjH1-e3UW8O-58" value="" style="shape=partialRectangle;connectable=0;fillColor=none;top=0;left=0;bottom=0;right=0;editable=1;overflow=hidden;whiteSpace=wrap;html=1;rounded=1;" vertex="1" parent="Vrc9euXCKkjH1-e3UW8O-57">
          <mxGeometry width="30" height="30" as="geometry">
            <mxRectangle width="30" height="30" as="alternateBounds" />
          </mxGeometry>
        </mxCell>
        <mxCell id="Vrc9euXCKkjH1-e3UW8O-59" value="HouseNumber" style="shape=partialRectangle;connectable=0;fillColor=none;top=0;left=0;bottom=0;right=0;align=left;spacingLeft=6;overflow=hidden;whiteSpace=wrap;html=1;rounded=1;" vertex="1" parent="Vrc9euXCKkjH1-e3UW8O-57">
          <mxGeometry x="30" width="150" height="30" as="geometry">
            <mxRectangle width="150" height="30" as="alternateBounds" />
          </mxGeometry>
        </mxCell>
        <mxCell id="Vrc9euXCKkjH1-e3UW8O-60" value="" style="shape=tableRow;horizontal=0;startSize=0;swimlaneHead=0;swimlaneBody=0;fillColor=none;collapsible=0;dropTarget=0;points=[[0,0.5],[1,0.5]];portConstraint=eastwest;top=0;left=0;right=0;bottom=0;rounded=1;" vertex="1" parent="Vrc9euXCKkjH1-e3UW8O-17">
          <mxGeometry y="458" width="180" height="30" as="geometry" />
        </mxCell>
        <mxCell id="Vrc9euXCKkjH1-e3UW8O-61" value="" style="shape=partialRectangle;connectable=0;fillColor=none;top=0;left=0;bottom=0;right=0;editable=1;overflow=hidden;whiteSpace=wrap;html=1;rounded=1;" vertex="1" parent="Vrc9euXCKkjH1-e3UW8O-60">
          <mxGeometry width="30" height="30" as="geometry">
            <mxRectangle width="30" height="30" as="alternateBounds" />
          </mxGeometry>
        </mxCell>
        <mxCell id="Vrc9euXCKkjH1-e3UW8O-62" value="EmergencyContact" style="shape=partialRectangle;connectable=0;fillColor=none;top=0;left=0;bottom=0;right=0;align=left;spacingLeft=6;overflow=hidden;whiteSpace=wrap;html=1;rounded=1;" vertex="1" parent="Vrc9euXCKkjH1-e3UW8O-60">
          <mxGeometry x="30" width="150" height="30" as="geometry">
            <mxRectangle width="150" height="30" as="alternateBounds" />
          </mxGeometry>
        </mxCell>
        <mxCell id="Vrc9euXCKkjH1-e3UW8O-63" value="" style="shape=tableRow;horizontal=0;startSize=0;swimlaneHead=0;swimlaneBody=0;fillColor=none;collapsible=0;dropTarget=0;points=[[0,0.5],[1,0.5]];portConstraint=eastwest;top=0;left=0;right=0;bottom=0;rounded=1;" vertex="1" parent="Vrc9euXCKkjH1-e3UW8O-17">
          <mxGeometry y="488" width="180" height="30" as="geometry" />
        </mxCell>
        <mxCell id="Vrc9euXCKkjH1-e3UW8O-64" value="" style="shape=partialRectangle;connectable=0;fillColor=none;top=0;left=0;bottom=0;right=0;editable=1;overflow=hidden;whiteSpace=wrap;html=1;rounded=1;" vertex="1" parent="Vrc9euXCKkjH1-e3UW8O-63">
          <mxGeometry width="30" height="30" as="geometry">
            <mxRectangle width="30" height="30" as="alternateBounds" />
          </mxGeometry>
        </mxCell>
        <mxCell id="Vrc9euXCKkjH1-e3UW8O-65" value="EmergencyContactPhone" style="shape=partialRectangle;connectable=0;fillColor=none;top=0;left=0;bottom=0;right=0;align=left;spacingLeft=6;overflow=hidden;whiteSpace=wrap;html=1;rounded=1;" vertex="1" parent="Vrc9euXCKkjH1-e3UW8O-63">
          <mxGeometry x="30" width="150" height="30" as="geometry">
            <mxRectangle width="150" height="30" as="alternateBounds" />
          </mxGeometry>
        </mxCell>
        <mxCell id="Vrc9euXCKkjH1-e3UW8O-66" value="" style="shape=tableRow;horizontal=0;startSize=0;swimlaneHead=0;swimlaneBody=0;fillColor=none;collapsible=0;dropTarget=0;points=[[0,0.5],[1,0.5]];portConstraint=eastwest;top=0;left=0;right=0;bottom=0;rounded=1;" vertex="1" parent="Vrc9euXCKkjH1-e3UW8O-17">
          <mxGeometry y="518" width="180" height="30" as="geometry" />
        </mxCell>
        <mxCell id="Vrc9euXCKkjH1-e3UW8O-67" value="" style="shape=partialRectangle;connectable=0;fillColor=none;top=0;left=0;bottom=0;right=0;editable=1;overflow=hidden;whiteSpace=wrap;html=1;rounded=1;" vertex="1" parent="Vrc9euXCKkjH1-e3UW8O-66">
          <mxGeometry width="30" height="30" as="geometry">
            <mxRectangle width="30" height="30" as="alternateBounds" />
          </mxGeometry>
        </mxCell>
        <mxCell id="Vrc9euXCKkjH1-e3UW8O-68" value="ResidentPhoto" style="shape=partialRectangle;connectable=0;fillColor=none;top=0;left=0;bottom=0;right=0;align=left;spacingLeft=6;overflow=hidden;whiteSpace=wrap;html=1;rounded=1;" vertex="1" parent="Vrc9euXCKkjH1-e3UW8O-66">
          <mxGeometry x="30" width="150" height="30" as="geometry">
            <mxRectangle width="150" height="30" as="alternateBounds" />
          </mxGeometry>
        </mxCell>
        <mxCell id="Vrc9euXCKkjH1-e3UW8O-82" value="&lt;font color=&quot;#330066&quot;&gt;Employee&lt;/font&gt;" style="shape=table;startSize=30;container=1;collapsible=1;childLayout=tableLayout;fixedRows=1;rowLines=0;fontStyle=1;align=center;resizeLast=1;html=1;fillColor=#d0cee2;strokeColor=#56517e;rounded=1;" vertex="1" parent="1">
          <mxGeometry x="325" y="80" width="215" height="210" as="geometry" />
        </mxCell>
        <mxCell id="Vrc9euXCKkjH1-e3UW8O-83" value="" style="shape=tableRow;horizontal=0;startSize=0;swimlaneHead=0;swimlaneBody=0;fillColor=none;collapsible=0;dropTarget=0;points=[[0,0.5],[1,0.5]];portConstraint=eastwest;top=0;left=0;right=0;bottom=1;rounded=1;" vertex="1" parent="Vrc9euXCKkjH1-e3UW8O-82">
          <mxGeometry y="30" width="215" height="30" as="geometry" />
        </mxCell>
        <mxCell id="Vrc9euXCKkjH1-e3UW8O-84" value="PK" style="shape=partialRectangle;connectable=0;fillColor=none;top=0;left=0;bottom=0;right=0;fontStyle=1;overflow=hidden;whiteSpace=wrap;html=1;rounded=1;" vertex="1" parent="Vrc9euXCKkjH1-e3UW8O-83">
          <mxGeometry width="30" height="30" as="geometry">
            <mxRectangle width="30" height="30" as="alternateBounds" />
          </mxGeometry>
        </mxCell>
        <mxCell id="Vrc9euXCKkjH1-e3UW8O-85" value="MapHolderID" style="shape=partialRectangle;connectable=0;fillColor=none;top=0;left=0;bottom=0;right=0;align=left;spacingLeft=6;fontStyle=5;overflow=hidden;whiteSpace=wrap;html=1;rounded=1;" vertex="1" parent="Vrc9euXCKkjH1-e3UW8O-83">
          <mxGeometry x="30" width="185" height="30" as="geometry">
            <mxRectangle width="185" height="30" as="alternateBounds" />
          </mxGeometry>
        </mxCell>
        <mxCell id="Vrc9euXCKkjH1-e3UW8O-86" value="" style="shape=tableRow;horizontal=0;startSize=0;swimlaneHead=0;swimlaneBody=0;fillColor=none;collapsible=0;dropTarget=0;points=[[0,0.5],[1,0.5]];portConstraint=eastwest;top=0;left=0;right=0;bottom=0;rounded=1;" vertex="1" parent="Vrc9euXCKkjH1-e3UW8O-82">
          <mxGeometry y="60" width="215" height="30" as="geometry" />
        </mxCell>
        <mxCell id="Vrc9euXCKkjH1-e3UW8O-87" value="" style="shape=partialRectangle;connectable=0;fillColor=none;top=0;left=0;bottom=0;right=0;editable=1;overflow=hidden;whiteSpace=wrap;html=1;rounded=1;" vertex="1" parent="Vrc9euXCKkjH1-e3UW8O-86">
          <mxGeometry width="30" height="30" as="geometry">
            <mxRectangle width="30" height="30" as="alternateBounds" />
          </mxGeometry>
        </mxCell>
        <mxCell id="Vrc9euXCKkjH1-e3UW8O-88" value="MapHoldername" style="shape=partialRectangle;connectable=0;fillColor=none;top=0;left=0;bottom=0;right=0;align=left;spacingLeft=6;overflow=hidden;whiteSpace=wrap;html=1;rounded=1;" vertex="1" parent="Vrc9euXCKkjH1-e3UW8O-86">
          <mxGeometry x="30" width="185" height="30" as="geometry">
            <mxRectangle width="185" height="30" as="alternateBounds" />
          </mxGeometry>
        </mxCell>
        <mxCell id="Vrc9euXCKkjH1-e3UW8O-89" value="" style="shape=tableRow;horizontal=0;startSize=0;swimlaneHead=0;swimlaneBody=0;fillColor=none;collapsible=0;dropTarget=0;points=[[0,0.5],[1,0.5]];portConstraint=eastwest;top=0;left=0;right=0;bottom=0;rounded=1;" vertex="1" parent="Vrc9euXCKkjH1-e3UW8O-82">
          <mxGeometry y="90" width="215" height="30" as="geometry" />
        </mxCell>
        <mxCell id="Vrc9euXCKkjH1-e3UW8O-90" value="" style="shape=partialRectangle;connectable=0;fillColor=none;top=0;left=0;bottom=0;right=0;editable=1;overflow=hidden;whiteSpace=wrap;html=1;rounded=1;" vertex="1" parent="Vrc9euXCKkjH1-e3UW8O-89">
          <mxGeometry width="30" height="30" as="geometry">
            <mxRectangle width="30" height="30" as="alternateBounds" />
          </mxGeometry>
        </mxCell>
        <mxCell id="Vrc9euXCKkjH1-e3UW8O-91" value="MapHolderfathersName" style="shape=partialRectangle;connectable=0;fillColor=none;top=0;left=0;bottom=0;right=0;align=left;spacingLeft=6;overflow=hidden;whiteSpace=wrap;html=1;rounded=1;" vertex="1" parent="Vrc9euXCKkjH1-e3UW8O-89">
          <mxGeometry x="30" width="185" height="30" as="geometry">
            <mxRectangle width="185" height="30" as="alternateBounds" />
          </mxGeometry>
        </mxCell>
        <mxCell id="Vrc9euXCKkjH1-e3UW8O-92" value="" style="shape=tableRow;horizontal=0;startSize=0;swimlaneHead=0;swimlaneBody=0;fillColor=none;collapsible=0;dropTarget=0;points=[[0,0.5],[1,0.5]];portConstraint=eastwest;top=0;left=0;right=0;bottom=0;rounded=1;" vertex="1" parent="Vrc9euXCKkjH1-e3UW8O-82">
          <mxGeometry y="120" width="215" height="30" as="geometry" />
        </mxCell>
        <mxCell id="Vrc9euXCKkjH1-e3UW8O-93" value="" style="shape=partialRectangle;connectable=0;fillColor=none;top=0;left=0;bottom=0;right=0;editable=1;overflow=hidden;whiteSpace=wrap;html=1;rounded=1;" vertex="1" parent="Vrc9euXCKkjH1-e3UW8O-92">
          <mxGeometry width="30" height="30" as="geometry">
            <mxRectangle width="30" height="30" as="alternateBounds" />
          </mxGeometry>
        </mxCell>
        <mxCell id="Vrc9euXCKkjH1-e3UW8O-94" value="MapHoldergrandFathersName" style="shape=partialRectangle;connectable=0;fillColor=none;top=0;left=0;bottom=0;right=0;align=left;spacingLeft=6;overflow=hidden;whiteSpace=wrap;html=1;rounded=1;" vertex="1" parent="Vrc9euXCKkjH1-e3UW8O-92">
          <mxGeometry x="30" width="185" height="30" as="geometry">
            <mxRectangle width="185" height="30" as="alternateBounds" />
          </mxGeometry>
        </mxCell>
        <mxCell id="Vrc9euXCKkjH1-e3UW8O-95" value="" style="shape=tableRow;horizontal=0;startSize=0;swimlaneHead=0;swimlaneBody=0;fillColor=none;collapsible=0;dropTarget=0;points=[[0,0.5],[1,0.5]];portConstraint=eastwest;top=0;left=0;right=0;bottom=0;rounded=1;" vertex="1" parent="Vrc9euXCKkjH1-e3UW8O-82">
          <mxGeometry y="150" width="215" height="30" as="geometry" />
        </mxCell>
        <mxCell id="Vrc9euXCKkjH1-e3UW8O-96" value="" style="shape=partialRectangle;connectable=0;fillColor=none;top=0;left=0;bottom=0;right=0;editable=1;overflow=hidden;whiteSpace=wrap;html=1;rounded=1;" vertex="1" parent="Vrc9euXCKkjH1-e3UW8O-95">
          <mxGeometry width="30" height="30" as="geometry">
            <mxRectangle width="30" height="30" as="alternateBounds" />
          </mxGeometry>
        </mxCell>
        <mxCell id="Vrc9euXCKkjH1-e3UW8O-97" value="MapHolderPhone" style="shape=partialRectangle;connectable=0;fillColor=none;top=0;left=0;bottom=0;right=0;align=left;spacingLeft=6;overflow=hidden;whiteSpace=wrap;html=1;rounded=1;" vertex="1" parent="Vrc9euXCKkjH1-e3UW8O-95">
          <mxGeometry x="30" width="185" height="30" as="geometry">
            <mxRectangle width="185" height="30" as="alternateBounds" />
          </mxGeometry>
        </mxCell>
        <mxCell id="Vrc9euXCKkjH1-e3UW8O-98" value="" style="shape=tableRow;horizontal=0;startSize=0;swimlaneHead=0;swimlaneBody=0;fillColor=none;collapsible=0;dropTarget=0;points=[[0,0.5],[1,0.5]];portConstraint=eastwest;top=0;left=0;right=0;bottom=0;rounded=1;" vertex="1" parent="Vrc9euXCKkjH1-e3UW8O-82">
          <mxGeometry y="180" width="215" height="30" as="geometry" />
        </mxCell>
        <mxCell id="Vrc9euXCKkjH1-e3UW8O-99" value="" style="shape=partialRectangle;connectable=0;fillColor=none;top=0;left=0;bottom=0;right=0;editable=1;overflow=hidden;whiteSpace=wrap;html=1;rounded=1;" vertex="1" parent="Vrc9euXCKkjH1-e3UW8O-98">
          <mxGeometry width="30" height="30" as="geometry">
            <mxRectangle width="30" height="30" as="alternateBounds" />
          </mxGeometry>
        </mxCell>
        <mxCell id="Vrc9euXCKkjH1-e3UW8O-100" value="MapHolderPhoto" style="shape=partialRectangle;connectable=0;fillColor=none;top=0;left=0;bottom=0;right=0;align=left;spacingLeft=6;overflow=hidden;whiteSpace=wrap;html=1;rounded=1;" vertex="1" parent="Vrc9euXCKkjH1-e3UW8O-98">
          <mxGeometry x="30" width="185" height="30" as="geometry">
            <mxRectangle width="185" height="30" as="alternateBounds" />
          </mxGeometry>
        </mxCell>
        <mxCell id="Vrc9euXCKkjH1-e3UW8O-101" value="&lt;font color=&quot;#330066&quot;&gt;ResidentMapHolder&lt;/font&gt;" style="shape=table;startSize=33;container=1;collapsible=1;childLayout=tableLayout;fixedRows=1;rowLines=0;fontStyle=1;align=center;resizeLast=1;html=1;fillColor=#d0cee2;strokeColor=#56517e;rounded=1;" vertex="1" parent="1">
          <mxGeometry x="20" y="320" width="180" height="173" as="geometry" />
        </mxCell>
        <mxCell id="Vrc9euXCKkjH1-e3UW8O-102" value="" style="shape=tableRow;horizontal=0;startSize=0;swimlaneHead=0;swimlaneBody=0;fillColor=none;collapsible=0;dropTarget=0;points=[[0,0.5],[1,0.5]];portConstraint=eastwest;top=0;left=0;right=0;bottom=1;rounded=1;" vertex="1" parent="Vrc9euXCKkjH1-e3UW8O-101">
          <mxGeometry y="33" width="180" height="30" as="geometry" />
        </mxCell>
        <mxCell id="Vrc9euXCKkjH1-e3UW8O-103" value="FK" style="shape=partialRectangle;connectable=0;fillColor=none;top=0;left=0;bottom=0;right=0;fontStyle=1;overflow=hidden;whiteSpace=wrap;html=1;rounded=1;" vertex="1" parent="Vrc9euXCKkjH1-e3UW8O-102">
          <mxGeometry width="30" height="30" as="geometry">
            <mxRectangle width="30" height="30" as="alternateBounds" />
          </mxGeometry>
        </mxCell>
        <mxCell id="Vrc9euXCKkjH1-e3UW8O-104" value="MID" style="shape=partialRectangle;connectable=0;fillColor=none;top=0;left=0;bottom=0;right=0;align=left;spacingLeft=6;fontStyle=5;overflow=hidden;whiteSpace=wrap;html=1;rounded=1;" vertex="1" parent="Vrc9euXCKkjH1-e3UW8O-102">
          <mxGeometry x="30" width="150" height="30" as="geometry">
            <mxRectangle width="150" height="30" as="alternateBounds" />
          </mxGeometry>
        </mxCell>
        <mxCell id="Vrc9euXCKkjH1-e3UW8O-105" value="" style="shape=tableRow;horizontal=0;startSize=0;swimlaneHead=0;swimlaneBody=0;fillColor=none;collapsible=0;dropTarget=0;points=[[0,0.5],[1,0.5]];portConstraint=eastwest;top=0;left=0;right=0;bottom=0;rounded=1;" vertex="1" parent="Vrc9euXCKkjH1-e3UW8O-101">
          <mxGeometry y="63" width="180" height="30" as="geometry" />
        </mxCell>
        <mxCell id="Vrc9euXCKkjH1-e3UW8O-106" value="FK" style="shape=partialRectangle;connectable=0;fillColor=none;top=0;left=0;bottom=0;right=0;editable=1;overflow=hidden;whiteSpace=wrap;html=1;rounded=1;" vertex="1" parent="Vrc9euXCKkjH1-e3UW8O-105">
          <mxGeometry width="30" height="30" as="geometry">
            <mxRectangle width="30" height="30" as="alternateBounds" />
          </mxGeometry>
        </mxCell>
        <mxCell id="Vrc9euXCKkjH1-e3UW8O-107" value="RID" style="shape=partialRectangle;connectable=0;fillColor=none;top=0;left=0;bottom=0;right=0;align=left;spacingLeft=6;overflow=hidden;whiteSpace=wrap;html=1;rounded=1;" vertex="1" parent="Vrc9euXCKkjH1-e3UW8O-105">
          <mxGeometry x="30" width="150" height="30" as="geometry">
            <mxRectangle width="150" height="30" as="alternateBounds" />
          </mxGeometry>
        </mxCell>
        <mxCell id="Vrc9euXCKkjH1-e3UW8O-108" value="" style="shape=tableRow;horizontal=0;startSize=0;swimlaneHead=0;swimlaneBody=0;fillColor=none;collapsible=0;dropTarget=0;points=[[0,0.5],[1,0.5]];portConstraint=eastwest;top=0;left=0;right=0;bottom=0;rounded=1;" vertex="1" parent="Vrc9euXCKkjH1-e3UW8O-101">
          <mxGeometry y="93" width="180" height="30" as="geometry" />
        </mxCell>
        <mxCell id="Vrc9euXCKkjH1-e3UW8O-109" value="" style="shape=partialRectangle;connectable=0;fillColor=none;top=0;left=0;bottom=0;right=0;editable=1;overflow=hidden;whiteSpace=wrap;html=1;rounded=1;" vertex="1" parent="Vrc9euXCKkjH1-e3UW8O-108">
          <mxGeometry width="30" height="30" as="geometry">
            <mxRectangle width="30" height="30" as="alternateBounds" />
          </mxGeometry>
        </mxCell>
        <mxCell id="Vrc9euXCKkjH1-e3UW8O-110" value="" style="shape=partialRectangle;connectable=0;fillColor=none;top=0;left=0;bottom=0;right=0;align=left;spacingLeft=6;overflow=hidden;whiteSpace=wrap;html=1;rounded=1;" vertex="1" parent="Vrc9euXCKkjH1-e3UW8O-108">
          <mxGeometry x="30" width="150" height="30" as="geometry">
            <mxRectangle width="150" height="30" as="alternateBounds" />
          </mxGeometry>
        </mxCell>
        <mxCell id="Vrc9euXCKkjH1-e3UW8O-111" value="" style="shape=tableRow;horizontal=0;startSize=0;swimlaneHead=0;swimlaneBody=0;fillColor=none;collapsible=0;dropTarget=0;points=[[0,0.5],[1,0.5]];portConstraint=eastwest;top=0;left=0;right=0;bottom=0;rounded=1;" vertex="1" parent="Vrc9euXCKkjH1-e3UW8O-101">
          <mxGeometry y="123" width="180" height="30" as="geometry" />
        </mxCell>
        <mxCell id="Vrc9euXCKkjH1-e3UW8O-112" value="" style="shape=partialRectangle;connectable=0;fillColor=none;top=0;left=0;bottom=0;right=0;editable=1;overflow=hidden;whiteSpace=wrap;html=1;rounded=1;" vertex="1" parent="Vrc9euXCKkjH1-e3UW8O-111">
          <mxGeometry width="30" height="30" as="geometry">
            <mxRectangle width="30" height="30" as="alternateBounds" />
          </mxGeometry>
        </mxCell>
        <mxCell id="Vrc9euXCKkjH1-e3UW8O-113" value="" style="shape=partialRectangle;connectable=0;fillColor=none;top=0;left=0;bottom=0;right=0;align=left;spacingLeft=6;overflow=hidden;whiteSpace=wrap;html=1;rounded=1;" vertex="1" parent="Vrc9euXCKkjH1-e3UW8O-111">
          <mxGeometry x="30" width="150" height="30" as="geometry">
            <mxRectangle width="150" height="30" as="alternateBounds" />
          </mxGeometry>
        </mxCell>
        <mxCell id="Vrc9euXCKkjH1-e3UW8O-114" value="" style="shape=tableRow;horizontal=0;startSize=0;swimlaneHead=0;swimlaneBody=0;fillColor=none;collapsible=0;dropTarget=0;points=[[0,0.5],[1,0.5]];portConstraint=eastwest;top=0;left=0;right=0;bottom=0;rounded=1;" vertex="1" parent="Vrc9euXCKkjH1-e3UW8O-101">
          <mxGeometry y="153" width="180" height="20" as="geometry" />
        </mxCell>
        <mxCell id="Vrc9euXCKkjH1-e3UW8O-115" value="" style="shape=partialRectangle;connectable=0;fillColor=none;top=0;left=0;bottom=0;right=0;editable=1;overflow=hidden;whiteSpace=wrap;html=1;rounded=1;" vertex="1" parent="Vrc9euXCKkjH1-e3UW8O-114">
          <mxGeometry width="30" height="20" as="geometry">
            <mxRectangle width="30" height="20" as="alternateBounds" />
          </mxGeometry>
        </mxCell>
        <mxCell id="Vrc9euXCKkjH1-e3UW8O-116" value="" style="shape=partialRectangle;connectable=0;fillColor=none;top=0;left=0;bottom=0;right=0;align=left;spacingLeft=6;overflow=hidden;whiteSpace=wrap;html=1;rounded=1;" vertex="1" parent="Vrc9euXCKkjH1-e3UW8O-114">
          <mxGeometry x="30" width="150" height="20" as="geometry">
            <mxRectangle width="150" height="20" as="alternateBounds" />
          </mxGeometry>
        </mxCell>
        <mxCell id="Vrc9euXCKkjH1-e3UW8O-117" value="&lt;font color=&quot;#330066&quot;&gt;Employee&lt;/font&gt;" style="shape=table;startSize=30;container=1;collapsible=1;childLayout=tableLayout;fixedRows=1;rowLines=0;fontStyle=1;align=center;resizeLast=1;html=1;fillColor=#d0cee2;strokeColor=#56517e;rounded=1;" vertex="1" parent="1">
          <mxGeometry x="230" y="360" width="180" height="180" as="geometry" />
        </mxCell>
        <mxCell id="Vrc9euXCKkjH1-e3UW8O-118" value="" style="shape=tableRow;horizontal=0;startSize=0;swimlaneHead=0;swimlaneBody=0;fillColor=none;collapsible=0;dropTarget=0;points=[[0,0.5],[1,0.5]];portConstraint=eastwest;top=0;left=0;right=0;bottom=1;rounded=1;" vertex="1" parent="Vrc9euXCKkjH1-e3UW8O-117">
          <mxGeometry y="30" width="180" height="30" as="geometry" />
        </mxCell>
        <mxCell id="Vrc9euXCKkjH1-e3UW8O-119" value="PK" style="shape=partialRectangle;connectable=0;fillColor=none;top=0;left=0;bottom=0;right=0;fontStyle=1;overflow=hidden;whiteSpace=wrap;html=1;rounded=1;" vertex="1" parent="Vrc9euXCKkjH1-e3UW8O-118">
          <mxGeometry width="30" height="30" as="geometry">
            <mxRectangle width="30" height="30" as="alternateBounds" />
          </mxGeometry>
        </mxCell>
        <mxCell id="Vrc9euXCKkjH1-e3UW8O-120" value="Useraname" style="shape=partialRectangle;connectable=0;fillColor=none;top=0;left=0;bottom=0;right=0;align=left;spacingLeft=6;fontStyle=5;overflow=hidden;whiteSpace=wrap;html=1;rounded=1;" vertex="1" parent="Vrc9euXCKkjH1-e3UW8O-118">
          <mxGeometry x="30" width="150" height="30" as="geometry">
            <mxRectangle width="150" height="30" as="alternateBounds" />
          </mxGeometry>
        </mxCell>
        <mxCell id="Vrc9euXCKkjH1-e3UW8O-121" value="" style="shape=tableRow;horizontal=0;startSize=0;swimlaneHead=0;swimlaneBody=0;fillColor=none;collapsible=0;dropTarget=0;points=[[0,0.5],[1,0.5]];portConstraint=eastwest;top=0;left=0;right=0;bottom=0;rounded=1;" vertex="1" parent="Vrc9euXCKkjH1-e3UW8O-117">
          <mxGeometry y="60" width="180" height="30" as="geometry" />
        </mxCell>
        <mxCell id="Vrc9euXCKkjH1-e3UW8O-122" value="" style="shape=partialRectangle;connectable=0;fillColor=none;top=0;left=0;bottom=0;right=0;editable=1;overflow=hidden;whiteSpace=wrap;html=1;rounded=1;" vertex="1" parent="Vrc9euXCKkjH1-e3UW8O-121">
          <mxGeometry width="30" height="30" as="geometry">
            <mxRectangle width="30" height="30" as="alternateBounds" />
          </mxGeometry>
        </mxCell>
        <mxCell id="Vrc9euXCKkjH1-e3UW8O-123" value="name" style="shape=partialRectangle;connectable=0;fillColor=none;top=0;left=0;bottom=0;right=0;align=left;spacingLeft=6;overflow=hidden;whiteSpace=wrap;html=1;rounded=1;" vertex="1" parent="Vrc9euXCKkjH1-e3UW8O-121">
          <mxGeometry x="30" width="150" height="30" as="geometry">
            <mxRectangle width="150" height="30" as="alternateBounds" />
          </mxGeometry>
        </mxCell>
        <mxCell id="Vrc9euXCKkjH1-e3UW8O-124" value="" style="shape=tableRow;horizontal=0;startSize=0;swimlaneHead=0;swimlaneBody=0;fillColor=none;collapsible=0;dropTarget=0;points=[[0,0.5],[1,0.5]];portConstraint=eastwest;top=0;left=0;right=0;bottom=0;rounded=1;" vertex="1" parent="Vrc9euXCKkjH1-e3UW8O-117">
          <mxGeometry y="90" width="180" height="30" as="geometry" />
        </mxCell>
        <mxCell id="Vrc9euXCKkjH1-e3UW8O-125" value="" style="shape=partialRectangle;connectable=0;fillColor=none;top=0;left=0;bottom=0;right=0;editable=1;overflow=hidden;whiteSpace=wrap;html=1;rounded=1;" vertex="1" parent="Vrc9euXCKkjH1-e3UW8O-124">
          <mxGeometry width="30" height="30" as="geometry">
            <mxRectangle width="30" height="30" as="alternateBounds" />
          </mxGeometry>
        </mxCell>
        <mxCell id="Vrc9euXCKkjH1-e3UW8O-126" value="fathersName" style="shape=partialRectangle;connectable=0;fillColor=none;top=0;left=0;bottom=0;right=0;align=left;spacingLeft=6;overflow=hidden;whiteSpace=wrap;html=1;rounded=1;" vertex="1" parent="Vrc9euXCKkjH1-e3UW8O-124">
          <mxGeometry x="30" width="150" height="30" as="geometry">
            <mxRectangle width="150" height="30" as="alternateBounds" />
          </mxGeometry>
        </mxCell>
        <mxCell id="Vrc9euXCKkjH1-e3UW8O-127" value="" style="shape=tableRow;horizontal=0;startSize=0;swimlaneHead=0;swimlaneBody=0;fillColor=none;collapsible=0;dropTarget=0;points=[[0,0.5],[1,0.5]];portConstraint=eastwest;top=0;left=0;right=0;bottom=0;rounded=1;" vertex="1" parent="Vrc9euXCKkjH1-e3UW8O-117">
          <mxGeometry y="120" width="180" height="30" as="geometry" />
        </mxCell>
        <mxCell id="Vrc9euXCKkjH1-e3UW8O-128" value="" style="shape=partialRectangle;connectable=0;fillColor=none;top=0;left=0;bottom=0;right=0;editable=1;overflow=hidden;whiteSpace=wrap;html=1;rounded=1;" vertex="1" parent="Vrc9euXCKkjH1-e3UW8O-127">
          <mxGeometry width="30" height="30" as="geometry">
            <mxRectangle width="30" height="30" as="alternateBounds" />
          </mxGeometry>
        </mxCell>
        <mxCell id="Vrc9euXCKkjH1-e3UW8O-129" value="grandFathersName" style="shape=partialRectangle;connectable=0;fillColor=none;top=0;left=0;bottom=0;right=0;align=left;spacingLeft=6;overflow=hidden;whiteSpace=wrap;html=1;rounded=1;" vertex="1" parent="Vrc9euXCKkjH1-e3UW8O-127">
          <mxGeometry x="30" width="150" height="30" as="geometry">
            <mxRectangle width="150" height="30" as="alternateBounds" />
          </mxGeometry>
        </mxCell>
        <mxCell id="Vrc9euXCKkjH1-e3UW8O-130" value="" style="shape=tableRow;horizontal=0;startSize=0;swimlaneHead=0;swimlaneBody=0;fillColor=none;collapsible=0;dropTarget=0;points=[[0,0.5],[1,0.5]];portConstraint=eastwest;top=0;left=0;right=0;bottom=0;rounded=1;" vertex="1" parent="Vrc9euXCKkjH1-e3UW8O-117">
          <mxGeometry y="150" width="180" height="30" as="geometry" />
        </mxCell>
        <mxCell id="Vrc9euXCKkjH1-e3UW8O-131" value="" style="shape=partialRectangle;connectable=0;fillColor=none;top=0;left=0;bottom=0;right=0;editable=1;overflow=hidden;whiteSpace=wrap;html=1;rounded=1;" vertex="1" parent="Vrc9euXCKkjH1-e3UW8O-130">
          <mxGeometry width="30" height="30" as="geometry">
            <mxRectangle width="30" height="30" as="alternateBounds" />
          </mxGeometry>
        </mxCell>
        <mxCell id="Vrc9euXCKkjH1-e3UW8O-132" value="Job" style="shape=partialRectangle;connectable=0;fillColor=none;top=0;left=0;bottom=0;right=0;align=left;spacingLeft=6;overflow=hidden;whiteSpace=wrap;html=1;rounded=1;" vertex="1" parent="Vrc9euXCKkjH1-e3UW8O-130">
          <mxGeometry x="30" width="150" height="30" as="geometry">
            <mxRectangle width="150" height="30" as="alternateBounds" />
          </mxGeometry>
        </mxCell>
        <mxCell id="Vrc9euXCKkjH1-e3UW8O-133" value="&lt;font color=&quot;#330066&quot;&gt;KebeleResidentID&lt;/font&gt;" style="shape=table;startSize=30;container=1;collapsible=1;childLayout=tableLayout;fixedRows=1;rowLines=0;fontStyle=1;align=center;resizeLast=1;html=1;fillColor=#d0cee2;strokeColor=#56517e;rounded=1;" vertex="1" parent="1">
          <mxGeometry x="425" y="430" width="180" height="170" as="geometry" />
        </mxCell>
        <mxCell id="Vrc9euXCKkjH1-e3UW8O-134" value="" style="shape=tableRow;horizontal=0;startSize=0;swimlaneHead=0;swimlaneBody=0;fillColor=none;collapsible=0;dropTarget=0;points=[[0,0.5],[1,0.5]];portConstraint=eastwest;top=0;left=0;right=0;bottom=1;rounded=1;" vertex="1" parent="Vrc9euXCKkjH1-e3UW8O-133">
          <mxGeometry y="30" width="180" height="30" as="geometry" />
        </mxCell>
        <mxCell id="Vrc9euXCKkjH1-e3UW8O-135" value="FK" style="shape=partialRectangle;connectable=0;fillColor=none;top=0;left=0;bottom=0;right=0;fontStyle=1;overflow=hidden;whiteSpace=wrap;html=1;rounded=1;" vertex="1" parent="Vrc9euXCKkjH1-e3UW8O-134">
          <mxGeometry width="30" height="30" as="geometry">
            <mxRectangle width="30" height="30" as="alternateBounds" />
          </mxGeometry>
        </mxCell>
        <mxCell id="Vrc9euXCKkjH1-e3UW8O-136" value="ResidentID_K" style="shape=partialRectangle;connectable=0;fillColor=none;top=0;left=0;bottom=0;right=0;align=left;spacingLeft=6;fontStyle=5;overflow=hidden;whiteSpace=wrap;html=1;rounded=1;" vertex="1" parent="Vrc9euXCKkjH1-e3UW8O-134">
          <mxGeometry x="30" width="150" height="30" as="geometry">
            <mxRectangle width="150" height="30" as="alternateBounds" />
          </mxGeometry>
        </mxCell>
        <mxCell id="Vrc9euXCKkjH1-e3UW8O-137" value="" style="shape=tableRow;horizontal=0;startSize=0;swimlaneHead=0;swimlaneBody=0;fillColor=none;collapsible=0;dropTarget=0;points=[[0,0.5],[1,0.5]];portConstraint=eastwest;top=0;left=0;right=0;bottom=0;rounded=1;" vertex="1" parent="Vrc9euXCKkjH1-e3UW8O-133">
          <mxGeometry y="60" width="180" height="30" as="geometry" />
        </mxCell>
        <mxCell id="Vrc9euXCKkjH1-e3UW8O-138" value="" style="shape=partialRectangle;connectable=0;fillColor=none;top=0;left=0;bottom=0;right=0;editable=1;overflow=hidden;whiteSpace=wrap;html=1;rounded=1;" vertex="1" parent="Vrc9euXCKkjH1-e3UW8O-137">
          <mxGeometry width="30" height="30" as="geometry">
            <mxRectangle width="30" height="30" as="alternateBounds" />
          </mxGeometry>
        </mxCell>
        <mxCell id="Vrc9euXCKkjH1-e3UW8O-139" value="GivenDate" style="shape=partialRectangle;connectable=0;fillColor=none;top=0;left=0;bottom=0;right=0;align=left;spacingLeft=6;overflow=hidden;whiteSpace=wrap;html=1;rounded=1;" vertex="1" parent="Vrc9euXCKkjH1-e3UW8O-137">
          <mxGeometry x="30" width="150" height="30" as="geometry">
            <mxRectangle width="150" height="30" as="alternateBounds" />
          </mxGeometry>
        </mxCell>
        <mxCell id="Vrc9euXCKkjH1-e3UW8O-140" value="" style="shape=tableRow;horizontal=0;startSize=0;swimlaneHead=0;swimlaneBody=0;fillColor=none;collapsible=0;dropTarget=0;points=[[0,0.5],[1,0.5]];portConstraint=eastwest;top=0;left=0;right=0;bottom=0;rounded=1;" vertex="1" parent="Vrc9euXCKkjH1-e3UW8O-133">
          <mxGeometry y="90" width="180" height="30" as="geometry" />
        </mxCell>
        <mxCell id="Vrc9euXCKkjH1-e3UW8O-141" value="" style="shape=partialRectangle;connectable=0;fillColor=none;top=0;left=0;bottom=0;right=0;editable=1;overflow=hidden;whiteSpace=wrap;html=1;rounded=1;" vertex="1" parent="Vrc9euXCKkjH1-e3UW8O-140">
          <mxGeometry width="30" height="30" as="geometry">
            <mxRectangle width="30" height="30" as="alternateBounds" />
          </mxGeometry>
        </mxCell>
        <mxCell id="Vrc9euXCKkjH1-e3UW8O-142" value="ExpDat" style="shape=partialRectangle;connectable=0;fillColor=none;top=0;left=0;bottom=0;right=0;align=left;spacingLeft=6;overflow=hidden;whiteSpace=wrap;html=1;rounded=1;" vertex="1" parent="Vrc9euXCKkjH1-e3UW8O-140">
          <mxGeometry x="30" width="150" height="30" as="geometry">
            <mxRectangle width="150" height="30" as="alternateBounds" />
          </mxGeometry>
        </mxCell>
        <mxCell id="Vrc9euXCKkjH1-e3UW8O-143" value="" style="shape=tableRow;horizontal=0;startSize=0;swimlaneHead=0;swimlaneBody=0;fillColor=none;collapsible=0;dropTarget=0;points=[[0,0.5],[1,0.5]];portConstraint=eastwest;top=0;left=0;right=0;bottom=0;rounded=1;" vertex="1" parent="Vrc9euXCKkjH1-e3UW8O-133">
          <mxGeometry y="120" width="180" height="30" as="geometry" />
        </mxCell>
        <mxCell id="Vrc9euXCKkjH1-e3UW8O-144" value="" style="shape=partialRectangle;connectable=0;fillColor=none;top=0;left=0;bottom=0;right=0;editable=1;overflow=hidden;whiteSpace=wrap;html=1;rounded=1;" vertex="1" parent="Vrc9euXCKkjH1-e3UW8O-143">
          <mxGeometry width="30" height="30" as="geometry">
            <mxRectangle width="30" height="30" as="alternateBounds" />
          </mxGeometry>
        </mxCell>
        <mxCell id="Vrc9euXCKkjH1-e3UW8O-145" value="ExpirationStatus" style="shape=partialRectangle;connectable=0;fillColor=none;top=0;left=0;bottom=0;right=0;align=left;spacingLeft=6;overflow=hidden;whiteSpace=wrap;html=1;rounded=1;" vertex="1" parent="Vrc9euXCKkjH1-e3UW8O-143">
          <mxGeometry x="30" width="150" height="30" as="geometry">
            <mxRectangle width="150" height="30" as="alternateBounds" />
          </mxGeometry>
        </mxCell>
        <mxCell id="Vrc9euXCKkjH1-e3UW8O-146" value="" style="shape=tableRow;horizontal=0;startSize=0;swimlaneHead=0;swimlaneBody=0;fillColor=none;collapsible=0;dropTarget=0;points=[[0,0.5],[1,0.5]];portConstraint=eastwest;top=0;left=0;right=0;bottom=0;rounded=1;" vertex="1" parent="Vrc9euXCKkjH1-e3UW8O-133">
          <mxGeometry y="150" width="180" height="20" as="geometry" />
        </mxCell>
        <mxCell id="Vrc9euXCKkjH1-e3UW8O-147" value="" style="shape=partialRectangle;connectable=0;fillColor=none;top=0;left=0;bottom=0;right=0;editable=1;overflow=hidden;whiteSpace=wrap;html=1;rounded=1;" vertex="1" parent="Vrc9euXCKkjH1-e3UW8O-146">
          <mxGeometry width="30" height="20" as="geometry">
            <mxRectangle width="30" height="20" as="alternateBounds" />
          </mxGeometry>
        </mxCell>
        <mxCell id="Vrc9euXCKkjH1-e3UW8O-148" value="" style="shape=partialRectangle;connectable=0;fillColor=none;top=0;left=0;bottom=0;right=0;align=left;spacingLeft=6;overflow=hidden;whiteSpace=wrap;html=1;rounded=1;" vertex="1" parent="Vrc9euXCKkjH1-e3UW8O-146">
          <mxGeometry x="30" width="150" height="20" as="geometry">
            <mxRectangle width="150" height="20" as="alternateBounds" />
          </mxGeometry>
        </mxCell>
        <mxCell id="Vrc9euXCKkjH1-e3UW8O-149" value="&lt;font color=&quot;#330066&quot;&gt;RenewalPayment&lt;/font&gt;" style="shape=table;startSize=30;container=1;collapsible=1;childLayout=tableLayout;fixedRows=1;rowLines=0;fontStyle=1;align=center;resizeLast=1;html=1;fillColor=#d0cee2;strokeColor=#56517e;rounded=1;" vertex="1" parent="1">
          <mxGeometry x="20" y="590" width="180" height="170" as="geometry" />
        </mxCell>
        <mxCell id="Vrc9euXCKkjH1-e3UW8O-150" value="" style="shape=tableRow;horizontal=0;startSize=0;swimlaneHead=0;swimlaneBody=0;fillColor=none;collapsible=0;dropTarget=0;points=[[0,0.5],[1,0.5]];portConstraint=eastwest;top=0;left=0;right=0;bottom=1;rounded=1;" vertex="1" parent="Vrc9euXCKkjH1-e3UW8O-149">
          <mxGeometry y="30" width="180" height="30" as="geometry" />
        </mxCell>
        <mxCell id="Vrc9euXCKkjH1-e3UW8O-151" value="FK" style="shape=partialRectangle;connectable=0;fillColor=none;top=0;left=0;bottom=0;right=0;fontStyle=1;overflow=hidden;whiteSpace=wrap;html=1;rounded=1;" vertex="1" parent="Vrc9euXCKkjH1-e3UW8O-150">
          <mxGeometry width="30" height="30" as="geometry">
            <mxRectangle width="30" height="30" as="alternateBounds" />
          </mxGeometry>
        </mxCell>
        <mxCell id="Vrc9euXCKkjH1-e3UW8O-152" value="RPID" style="shape=partialRectangle;connectable=0;fillColor=none;top=0;left=0;bottom=0;right=0;align=left;spacingLeft=6;fontStyle=5;overflow=hidden;whiteSpace=wrap;html=1;rounded=1;" vertex="1" parent="Vrc9euXCKkjH1-e3UW8O-150">
          <mxGeometry x="30" width="150" height="30" as="geometry">
            <mxRectangle width="150" height="30" as="alternateBounds" />
          </mxGeometry>
        </mxCell>
        <mxCell id="Vrc9euXCKkjH1-e3UW8O-153" value="" style="shape=tableRow;horizontal=0;startSize=0;swimlaneHead=0;swimlaneBody=0;fillColor=none;collapsible=0;dropTarget=0;points=[[0,0.5],[1,0.5]];portConstraint=eastwest;top=0;left=0;right=0;bottom=0;rounded=1;" vertex="1" parent="Vrc9euXCKkjH1-e3UW8O-149">
          <mxGeometry y="60" width="180" height="30" as="geometry" />
        </mxCell>
        <mxCell id="Vrc9euXCKkjH1-e3UW8O-154" value="" style="shape=partialRectangle;connectable=0;fillColor=none;top=0;left=0;bottom=0;right=0;editable=1;overflow=hidden;whiteSpace=wrap;html=1;rounded=1;" vertex="1" parent="Vrc9euXCKkjH1-e3UW8O-153">
          <mxGeometry width="30" height="30" as="geometry">
            <mxRectangle width="30" height="30" as="alternateBounds" />
          </mxGeometry>
        </mxCell>
        <mxCell id="Vrc9euXCKkjH1-e3UW8O-155" value="ResidentID_R" style="shape=partialRectangle;connectable=0;fillColor=none;top=0;left=0;bottom=0;right=0;align=left;spacingLeft=6;overflow=hidden;whiteSpace=wrap;html=1;rounded=1;" vertex="1" parent="Vrc9euXCKkjH1-e3UW8O-153">
          <mxGeometry x="30" width="150" height="30" as="geometry">
            <mxRectangle width="150" height="30" as="alternateBounds" />
          </mxGeometry>
        </mxCell>
        <mxCell id="Vrc9euXCKkjH1-e3UW8O-156" value="" style="shape=tableRow;horizontal=0;startSize=0;swimlaneHead=0;swimlaneBody=0;fillColor=none;collapsible=0;dropTarget=0;points=[[0,0.5],[1,0.5]];portConstraint=eastwest;top=0;left=0;right=0;bottom=0;rounded=1;" vertex="1" parent="Vrc9euXCKkjH1-e3UW8O-149">
          <mxGeometry y="90" width="180" height="30" as="geometry" />
        </mxCell>
        <mxCell id="Vrc9euXCKkjH1-e3UW8O-157" value="" style="shape=partialRectangle;connectable=0;fillColor=none;top=0;left=0;bottom=0;right=0;editable=1;overflow=hidden;whiteSpace=wrap;html=1;rounded=1;" vertex="1" parent="Vrc9euXCKkjH1-e3UW8O-156">
          <mxGeometry width="30" height="30" as="geometry">
            <mxRectangle width="30" height="30" as="alternateBounds" />
          </mxGeometry>
        </mxCell>
        <mxCell id="Vrc9euXCKkjH1-e3UW8O-158" value="UserName" style="shape=partialRectangle;connectable=0;fillColor=none;top=0;left=0;bottom=0;right=0;align=left;spacingLeft=6;overflow=hidden;whiteSpace=wrap;html=1;rounded=1;" vertex="1" parent="Vrc9euXCKkjH1-e3UW8O-156">
          <mxGeometry x="30" width="150" height="30" as="geometry">
            <mxRectangle width="150" height="30" as="alternateBounds" />
          </mxGeometry>
        </mxCell>
        <mxCell id="Vrc9euXCKkjH1-e3UW8O-159" value="" style="shape=tableRow;horizontal=0;startSize=0;swimlaneHead=0;swimlaneBody=0;fillColor=none;collapsible=0;dropTarget=0;points=[[0,0.5],[1,0.5]];portConstraint=eastwest;top=0;left=0;right=0;bottom=0;rounded=1;" vertex="1" parent="Vrc9euXCKkjH1-e3UW8O-149">
          <mxGeometry y="120" width="180" height="30" as="geometry" />
        </mxCell>
        <mxCell id="Vrc9euXCKkjH1-e3UW8O-160" value="" style="shape=partialRectangle;connectable=0;fillColor=none;top=0;left=0;bottom=0;right=0;editable=1;overflow=hidden;whiteSpace=wrap;html=1;rounded=1;" vertex="1" parent="Vrc9euXCKkjH1-e3UW8O-159">
          <mxGeometry width="30" height="30" as="geometry">
            <mxRectangle width="30" height="30" as="alternateBounds" />
          </mxGeometry>
        </mxCell>
        <mxCell id="Vrc9euXCKkjH1-e3UW8O-161" value="TotalFee" style="shape=partialRectangle;connectable=0;fillColor=none;top=0;left=0;bottom=0;right=0;align=left;spacingLeft=6;overflow=hidden;whiteSpace=wrap;html=1;rounded=1;" vertex="1" parent="Vrc9euXCKkjH1-e3UW8O-159">
          <mxGeometry x="30" width="150" height="30" as="geometry">
            <mxRectangle width="150" height="30" as="alternateBounds" />
          </mxGeometry>
        </mxCell>
        <mxCell id="Vrc9euXCKkjH1-e3UW8O-162" value="" style="shape=tableRow;horizontal=0;startSize=0;swimlaneHead=0;swimlaneBody=0;fillColor=none;collapsible=0;dropTarget=0;points=[[0,0.5],[1,0.5]];portConstraint=eastwest;top=0;left=0;right=0;bottom=0;rounded=1;" vertex="1" parent="Vrc9euXCKkjH1-e3UW8O-149">
          <mxGeometry y="150" width="180" height="20" as="geometry" />
        </mxCell>
        <mxCell id="Vrc9euXCKkjH1-e3UW8O-163" value="" style="shape=partialRectangle;connectable=0;fillColor=none;top=0;left=0;bottom=0;right=0;editable=1;overflow=hidden;whiteSpace=wrap;html=1;rounded=1;" vertex="1" parent="Vrc9euXCKkjH1-e3UW8O-162">
          <mxGeometry width="30" height="20" as="geometry">
            <mxRectangle width="30" height="20" as="alternateBounds" />
          </mxGeometry>
        </mxCell>
        <mxCell id="Vrc9euXCKkjH1-e3UW8O-164" value="" style="shape=partialRectangle;connectable=0;fillColor=none;top=0;left=0;bottom=0;right=0;align=left;spacingLeft=6;overflow=hidden;whiteSpace=wrap;html=1;rounded=1;" vertex="1" parent="Vrc9euXCKkjH1-e3UW8O-162">
          <mxGeometry x="30" width="150" height="20" as="geometry">
            <mxRectangle width="150" height="20" as="alternateBounds" />
          </mxGeometry>
        </mxCell>
        <mxCell id="Vrc9euXCKkjH1-e3UW8O-165" value="&lt;font color=&quot;#330066&quot;&gt;LostPayment&lt;/font&gt;" style="shape=table;startSize=30;container=1;collapsible=1;childLayout=tableLayout;fixedRows=1;rowLines=0;fontStyle=1;align=center;resizeLast=1;html=1;fillColor=#d0cee2;strokeColor=#56517e;rounded=1;" vertex="1" parent="1">
          <mxGeometry x="160" y="800" width="180" height="188" as="geometry" />
        </mxCell>
        <mxCell id="Vrc9euXCKkjH1-e3UW8O-166" value="" style="shape=tableRow;horizontal=0;startSize=0;swimlaneHead=0;swimlaneBody=0;fillColor=none;collapsible=0;dropTarget=0;points=[[0,0.5],[1,0.5]];portConstraint=eastwest;top=0;left=0;right=0;bottom=1;rounded=1;" vertex="1" parent="Vrc9euXCKkjH1-e3UW8O-165">
          <mxGeometry y="30" width="180" height="30" as="geometry" />
        </mxCell>
        <mxCell id="Vrc9euXCKkjH1-e3UW8O-167" value="FK" style="shape=partialRectangle;connectable=0;fillColor=none;top=0;left=0;bottom=0;right=0;fontStyle=1;overflow=hidden;whiteSpace=wrap;html=1;rounded=1;" vertex="1" parent="Vrc9euXCKkjH1-e3UW8O-166">
          <mxGeometry width="30" height="30" as="geometry">
            <mxRectangle width="30" height="30" as="alternateBounds" />
          </mxGeometry>
        </mxCell>
        <mxCell id="Vrc9euXCKkjH1-e3UW8O-168" value="LPID" style="shape=partialRectangle;connectable=0;fillColor=none;top=0;left=0;bottom=0;right=0;align=left;spacingLeft=6;fontStyle=5;overflow=hidden;whiteSpace=wrap;html=1;rounded=1;" vertex="1" parent="Vrc9euXCKkjH1-e3UW8O-166">
          <mxGeometry x="30" width="150" height="30" as="geometry">
            <mxRectangle width="150" height="30" as="alternateBounds" />
          </mxGeometry>
        </mxCell>
        <mxCell id="Vrc9euXCKkjH1-e3UW8O-169" value="" style="shape=tableRow;horizontal=0;startSize=0;swimlaneHead=0;swimlaneBody=0;fillColor=none;collapsible=0;dropTarget=0;points=[[0,0.5],[1,0.5]];portConstraint=eastwest;top=0;left=0;right=0;bottom=0;rounded=1;" vertex="1" parent="Vrc9euXCKkjH1-e3UW8O-165">
          <mxGeometry y="60" width="180" height="30" as="geometry" />
        </mxCell>
        <mxCell id="Vrc9euXCKkjH1-e3UW8O-170" value="" style="shape=partialRectangle;connectable=0;fillColor=none;top=0;left=0;bottom=0;right=0;editable=1;overflow=hidden;whiteSpace=wrap;html=1;rounded=1;" vertex="1" parent="Vrc9euXCKkjH1-e3UW8O-169">
          <mxGeometry width="30" height="30" as="geometry">
            <mxRectangle width="30" height="30" as="alternateBounds" />
          </mxGeometry>
        </mxCell>
        <mxCell id="Vrc9euXCKkjH1-e3UW8O-171" value="ResidentID_L" style="shape=partialRectangle;connectable=0;fillColor=none;top=0;left=0;bottom=0;right=0;align=left;spacingLeft=6;overflow=hidden;whiteSpace=wrap;html=1;rounded=1;" vertex="1" parent="Vrc9euXCKkjH1-e3UW8O-169">
          <mxGeometry x="30" width="150" height="30" as="geometry">
            <mxRectangle width="150" height="30" as="alternateBounds" />
          </mxGeometry>
        </mxCell>
        <mxCell id="Vrc9euXCKkjH1-e3UW8O-172" value="" style="shape=tableRow;horizontal=0;startSize=0;swimlaneHead=0;swimlaneBody=0;fillColor=none;collapsible=0;dropTarget=0;points=[[0,0.5],[1,0.5]];portConstraint=eastwest;top=0;left=0;right=0;bottom=0;rounded=1;" vertex="1" parent="Vrc9euXCKkjH1-e3UW8O-165">
          <mxGeometry y="90" width="180" height="30" as="geometry" />
        </mxCell>
        <mxCell id="Vrc9euXCKkjH1-e3UW8O-173" value="" style="shape=partialRectangle;connectable=0;fillColor=none;top=0;left=0;bottom=0;right=0;editable=1;overflow=hidden;whiteSpace=wrap;html=1;rounded=1;" vertex="1" parent="Vrc9euXCKkjH1-e3UW8O-172">
          <mxGeometry width="30" height="30" as="geometry">
            <mxRectangle width="30" height="30" as="alternateBounds" />
          </mxGeometry>
        </mxCell>
        <mxCell id="Vrc9euXCKkjH1-e3UW8O-174" value="UserName" style="shape=partialRectangle;connectable=0;fillColor=none;top=0;left=0;bottom=0;right=0;align=left;spacingLeft=6;overflow=hidden;whiteSpace=wrap;html=1;rounded=1;" vertex="1" parent="Vrc9euXCKkjH1-e3UW8O-172">
          <mxGeometry x="30" width="150" height="30" as="geometry">
            <mxRectangle width="150" height="30" as="alternateBounds" />
          </mxGeometry>
        </mxCell>
        <mxCell id="Vrc9euXCKkjH1-e3UW8O-175" value="" style="shape=tableRow;horizontal=0;startSize=0;swimlaneHead=0;swimlaneBody=0;fillColor=none;collapsible=0;dropTarget=0;points=[[0,0.5],[1,0.5]];portConstraint=eastwest;top=0;left=0;right=0;bottom=0;rounded=1;" vertex="1" parent="Vrc9euXCKkjH1-e3UW8O-165">
          <mxGeometry y="120" width="180" height="48" as="geometry" />
        </mxCell>
        <mxCell id="Vrc9euXCKkjH1-e3UW8O-176" value="" style="shape=partialRectangle;connectable=0;fillColor=none;top=0;left=0;bottom=0;right=0;editable=1;overflow=hidden;whiteSpace=wrap;html=1;rounded=1;" vertex="1" parent="Vrc9euXCKkjH1-e3UW8O-175">
          <mxGeometry width="30" height="48" as="geometry">
            <mxRectangle width="30" height="48" as="alternateBounds" />
          </mxGeometry>
        </mxCell>
        <mxCell id="Vrc9euXCKkjH1-e3UW8O-177" value="TotalFee_K" style="shape=partialRectangle;connectable=0;fillColor=none;top=0;left=0;bottom=0;right=0;align=left;spacingLeft=6;overflow=hidden;whiteSpace=wrap;html=1;rounded=1;" vertex="1" parent="Vrc9euXCKkjH1-e3UW8O-175">
          <mxGeometry x="30" width="150" height="48" as="geometry">
            <mxRectangle width="150" height="48" as="alternateBounds" />
          </mxGeometry>
        </mxCell>
        <mxCell id="Vrc9euXCKkjH1-e3UW8O-178" value="" style="shape=tableRow;horizontal=0;startSize=0;swimlaneHead=0;swimlaneBody=0;fillColor=none;collapsible=0;dropTarget=0;points=[[0,0.5],[1,0.5]];portConstraint=eastwest;top=0;left=0;right=0;bottom=0;rounded=1;" vertex="1" parent="Vrc9euXCKkjH1-e3UW8O-165">
          <mxGeometry y="168" width="180" height="20" as="geometry" />
        </mxCell>
        <mxCell id="Vrc9euXCKkjH1-e3UW8O-179" value="" style="shape=partialRectangle;connectable=0;fillColor=none;top=0;left=0;bottom=0;right=0;editable=1;overflow=hidden;whiteSpace=wrap;html=1;rounded=1;" vertex="1" parent="Vrc9euXCKkjH1-e3UW8O-178">
          <mxGeometry width="30" height="20" as="geometry">
            <mxRectangle width="30" height="20" as="alternateBounds" />
          </mxGeometry>
        </mxCell>
        <mxCell id="Vrc9euXCKkjH1-e3UW8O-180" value="" style="shape=partialRectangle;connectable=0;fillColor=none;top=0;left=0;bottom=0;right=0;align=left;spacingLeft=6;overflow=hidden;whiteSpace=wrap;html=1;rounded=1;" vertex="1" parent="Vrc9euXCKkjH1-e3UW8O-178">
          <mxGeometry x="30" width="150" height="20" as="geometry">
            <mxRectangle width="150" height="20" as="alternateBounds" />
          </mxGeometry>
        </mxCell>
        <mxCell id="Vrc9euXCKkjH1-e3UW8O-181" value="&lt;font color=&quot;#330066&quot;&gt;CreatePayment&lt;/font&gt;" style="shape=table;startSize=30;container=1;collapsible=1;childLayout=tableLayout;fixedRows=1;rowLines=0;fontStyle=1;align=center;resizeLast=1;html=1;fillColor=#d0cee2;strokeColor=#56517e;rounded=1;" vertex="1" parent="1">
          <mxGeometry x="400" y="700" width="180" height="188" as="geometry" />
        </mxCell>
        <mxCell id="Vrc9euXCKkjH1-e3UW8O-182" value="" style="shape=tableRow;horizontal=0;startSize=0;swimlaneHead=0;swimlaneBody=0;fillColor=none;collapsible=0;dropTarget=0;points=[[0,0.5],[1,0.5]];portConstraint=eastwest;top=0;left=0;right=0;bottom=1;rounded=1;" vertex="1" parent="Vrc9euXCKkjH1-e3UW8O-181">
          <mxGeometry y="30" width="180" height="30" as="geometry" />
        </mxCell>
        <mxCell id="Vrc9euXCKkjH1-e3UW8O-183" value="FK" style="shape=partialRectangle;connectable=0;fillColor=none;top=0;left=0;bottom=0;right=0;fontStyle=1;overflow=hidden;whiteSpace=wrap;html=1;rounded=1;" vertex="1" parent="Vrc9euXCKkjH1-e3UW8O-182">
          <mxGeometry width="30" height="30" as="geometry">
            <mxRectangle width="30" height="30" as="alternateBounds" />
          </mxGeometry>
        </mxCell>
        <mxCell id="Vrc9euXCKkjH1-e3UW8O-184" value="CPID" style="shape=partialRectangle;connectable=0;fillColor=none;top=0;left=0;bottom=0;right=0;align=left;spacingLeft=6;fontStyle=5;overflow=hidden;whiteSpace=wrap;html=1;rounded=1;" vertex="1" parent="Vrc9euXCKkjH1-e3UW8O-182">
          <mxGeometry x="30" width="150" height="30" as="geometry">
            <mxRectangle width="150" height="30" as="alternateBounds" />
          </mxGeometry>
        </mxCell>
        <mxCell id="Vrc9euXCKkjH1-e3UW8O-185" value="" style="shape=tableRow;horizontal=0;startSize=0;swimlaneHead=0;swimlaneBody=0;fillColor=none;collapsible=0;dropTarget=0;points=[[0,0.5],[1,0.5]];portConstraint=eastwest;top=0;left=0;right=0;bottom=0;rounded=1;" vertex="1" parent="Vrc9euXCKkjH1-e3UW8O-181">
          <mxGeometry y="60" width="180" height="30" as="geometry" />
        </mxCell>
        <mxCell id="Vrc9euXCKkjH1-e3UW8O-186" value="" style="shape=partialRectangle;connectable=0;fillColor=none;top=0;left=0;bottom=0;right=0;editable=1;overflow=hidden;whiteSpace=wrap;html=1;rounded=1;" vertex="1" parent="Vrc9euXCKkjH1-e3UW8O-185">
          <mxGeometry width="30" height="30" as="geometry">
            <mxRectangle width="30" height="30" as="alternateBounds" />
          </mxGeometry>
        </mxCell>
        <mxCell id="Vrc9euXCKkjH1-e3UW8O-187" value="ResidentID_C" style="shape=partialRectangle;connectable=0;fillColor=none;top=0;left=0;bottom=0;right=0;align=left;spacingLeft=6;overflow=hidden;whiteSpace=wrap;html=1;rounded=1;" vertex="1" parent="Vrc9euXCKkjH1-e3UW8O-185">
          <mxGeometry x="30" width="150" height="30" as="geometry">
            <mxRectangle width="150" height="30" as="alternateBounds" />
          </mxGeometry>
        </mxCell>
        <mxCell id="Vrc9euXCKkjH1-e3UW8O-188" value="" style="shape=tableRow;horizontal=0;startSize=0;swimlaneHead=0;swimlaneBody=0;fillColor=none;collapsible=0;dropTarget=0;points=[[0,0.5],[1,0.5]];portConstraint=eastwest;top=0;left=0;right=0;bottom=0;rounded=1;" vertex="1" parent="Vrc9euXCKkjH1-e3UW8O-181">
          <mxGeometry y="90" width="180" height="30" as="geometry" />
        </mxCell>
        <mxCell id="Vrc9euXCKkjH1-e3UW8O-189" value="" style="shape=partialRectangle;connectable=0;fillColor=none;top=0;left=0;bottom=0;right=0;editable=1;overflow=hidden;whiteSpace=wrap;html=1;rounded=1;" vertex="1" parent="Vrc9euXCKkjH1-e3UW8O-188">
          <mxGeometry width="30" height="30" as="geometry">
            <mxRectangle width="30" height="30" as="alternateBounds" />
          </mxGeometry>
        </mxCell>
        <mxCell id="Vrc9euXCKkjH1-e3UW8O-190" value="UserName_c" style="shape=partialRectangle;connectable=0;fillColor=none;top=0;left=0;bottom=0;right=0;align=left;spacingLeft=6;overflow=hidden;whiteSpace=wrap;html=1;rounded=1;" vertex="1" parent="Vrc9euXCKkjH1-e3UW8O-188">
          <mxGeometry x="30" width="150" height="30" as="geometry">
            <mxRectangle width="150" height="30" as="alternateBounds" />
          </mxGeometry>
        </mxCell>
        <mxCell id="Vrc9euXCKkjH1-e3UW8O-191" value="" style="shape=tableRow;horizontal=0;startSize=0;swimlaneHead=0;swimlaneBody=0;fillColor=none;collapsible=0;dropTarget=0;points=[[0,0.5],[1,0.5]];portConstraint=eastwest;top=0;left=0;right=0;bottom=0;rounded=1;" vertex="1" parent="Vrc9euXCKkjH1-e3UW8O-181">
          <mxGeometry y="120" width="180" height="48" as="geometry" />
        </mxCell>
        <mxCell id="Vrc9euXCKkjH1-e3UW8O-192" value="" style="shape=partialRectangle;connectable=0;fillColor=none;top=0;left=0;bottom=0;right=0;editable=1;overflow=hidden;whiteSpace=wrap;html=1;rounded=1;" vertex="1" parent="Vrc9euXCKkjH1-e3UW8O-191">
          <mxGeometry width="30" height="48" as="geometry">
            <mxRectangle width="30" height="48" as="alternateBounds" />
          </mxGeometry>
        </mxCell>
        <mxCell id="Vrc9euXCKkjH1-e3UW8O-193" value="TotalFee_c" style="shape=partialRectangle;connectable=0;fillColor=none;top=0;left=0;bottom=0;right=0;align=left;spacingLeft=6;overflow=hidden;whiteSpace=wrap;html=1;rounded=1;" vertex="1" parent="Vrc9euXCKkjH1-e3UW8O-191">
          <mxGeometry x="30" width="150" height="48" as="geometry">
            <mxRectangle width="150" height="48" as="alternateBounds" />
          </mxGeometry>
        </mxCell>
        <mxCell id="Vrc9euXCKkjH1-e3UW8O-194" value="" style="shape=tableRow;horizontal=0;startSize=0;swimlaneHead=0;swimlaneBody=0;fillColor=none;collapsible=0;dropTarget=0;points=[[0,0.5],[1,0.5]];portConstraint=eastwest;top=0;left=0;right=0;bottom=0;rounded=1;" vertex="1" parent="Vrc9euXCKkjH1-e3UW8O-181">
          <mxGeometry y="168" width="180" height="20" as="geometry" />
        </mxCell>
        <mxCell id="Vrc9euXCKkjH1-e3UW8O-195" value="" style="shape=partialRectangle;connectable=0;fillColor=none;top=0;left=0;bottom=0;right=0;editable=1;overflow=hidden;whiteSpace=wrap;html=1;rounded=1;" vertex="1" parent="Vrc9euXCKkjH1-e3UW8O-194">
          <mxGeometry width="30" height="20" as="geometry">
            <mxRectangle width="30" height="20" as="alternateBounds" />
          </mxGeometry>
        </mxCell>
        <mxCell id="Vrc9euXCKkjH1-e3UW8O-196" value="" style="shape=partialRectangle;connectable=0;fillColor=none;top=0;left=0;bottom=0;right=0;align=left;spacingLeft=6;overflow=hidden;whiteSpace=wrap;html=1;rounded=1;" vertex="1" parent="Vrc9euXCKkjH1-e3UW8O-194">
          <mxGeometry x="30" width="150" height="20" as="geometry">
            <mxRectangle width="150" height="20" as="alternateBounds" />
          </mxGeometry>
        </mxCell>
        <mxCell id="Vrc9euXCKkjH1-e3UW8O-197" value="&lt;font color=&quot;#330066&quot;&gt;Request&lt;/font&gt;" style="shape=table;startSize=30;container=1;collapsible=1;childLayout=tableLayout;fixedRows=1;rowLines=0;fontStyle=1;align=center;resizeLast=1;html=1;fillColor=#d0cee2;strokeColor=#56517e;rounded=1;" vertex="1" parent="1">
          <mxGeometry x="620" y="730" width="180" height="200" as="geometry" />
        </mxCell>
        <mxCell id="Vrc9euXCKkjH1-e3UW8O-198" value="" style="shape=tableRow;horizontal=0;startSize=0;swimlaneHead=0;swimlaneBody=0;fillColor=none;collapsible=0;dropTarget=0;points=[[0,0.5],[1,0.5]];portConstraint=eastwest;top=0;left=0;right=0;bottom=1;rounded=1;" vertex="1" parent="Vrc9euXCKkjH1-e3UW8O-197">
          <mxGeometry y="30" width="180" height="30" as="geometry" />
        </mxCell>
        <mxCell id="Vrc9euXCKkjH1-e3UW8O-199" value="PK" style="shape=partialRectangle;connectable=0;fillColor=none;top=0;left=0;bottom=0;right=0;fontStyle=1;overflow=hidden;whiteSpace=wrap;html=1;rounded=1;" vertex="1" parent="Vrc9euXCKkjH1-e3UW8O-198">
          <mxGeometry width="30" height="30" as="geometry">
            <mxRectangle width="30" height="30" as="alternateBounds" />
          </mxGeometry>
        </mxCell>
        <mxCell id="Vrc9euXCKkjH1-e3UW8O-200" value="RequestID" style="shape=partialRectangle;connectable=0;fillColor=none;top=0;left=0;bottom=0;right=0;align=left;spacingLeft=6;fontStyle=5;overflow=hidden;whiteSpace=wrap;html=1;rounded=1;" vertex="1" parent="Vrc9euXCKkjH1-e3UW8O-198">
          <mxGeometry x="30" width="150" height="30" as="geometry">
            <mxRectangle width="150" height="30" as="alternateBounds" />
          </mxGeometry>
        </mxCell>
        <mxCell id="Vrc9euXCKkjH1-e3UW8O-201" value="" style="shape=tableRow;horizontal=0;startSize=0;swimlaneHead=0;swimlaneBody=0;fillColor=none;collapsible=0;dropTarget=0;points=[[0,0.5],[1,0.5]];portConstraint=eastwest;top=0;left=0;right=0;bottom=0;rounded=1;" vertex="1" parent="Vrc9euXCKkjH1-e3UW8O-197">
          <mxGeometry y="60" width="180" height="30" as="geometry" />
        </mxCell>
        <mxCell id="Vrc9euXCKkjH1-e3UW8O-202" value="" style="shape=partialRectangle;connectable=0;fillColor=none;top=0;left=0;bottom=0;right=0;editable=1;overflow=hidden;whiteSpace=wrap;html=1;rounded=1;" vertex="1" parent="Vrc9euXCKkjH1-e3UW8O-201">
          <mxGeometry width="30" height="30" as="geometry">
            <mxRectangle width="30" height="30" as="alternateBounds" />
          </mxGeometry>
        </mxCell>
        <mxCell id="Vrc9euXCKkjH1-e3UW8O-203" value="RID" style="shape=partialRectangle;connectable=0;fillColor=none;top=0;left=0;bottom=0;right=0;align=left;spacingLeft=6;overflow=hidden;whiteSpace=wrap;html=1;rounded=1;" vertex="1" parent="Vrc9euXCKkjH1-e3UW8O-201">
          <mxGeometry x="30" width="150" height="30" as="geometry">
            <mxRectangle width="150" height="30" as="alternateBounds" />
          </mxGeometry>
        </mxCell>
        <mxCell id="Vrc9euXCKkjH1-e3UW8O-204" value="" style="shape=tableRow;horizontal=0;startSize=0;swimlaneHead=0;swimlaneBody=0;fillColor=none;collapsible=0;dropTarget=0;points=[[0,0.5],[1,0.5]];portConstraint=eastwest;top=0;left=0;right=0;bottom=0;rounded=1;" vertex="1" parent="Vrc9euXCKkjH1-e3UW8O-197">
          <mxGeometry y="90" width="180" height="30" as="geometry" />
        </mxCell>
        <mxCell id="Vrc9euXCKkjH1-e3UW8O-205" value="" style="shape=partialRectangle;connectable=0;fillColor=none;top=0;left=0;bottom=0;right=0;editable=1;overflow=hidden;whiteSpace=wrap;html=1;rounded=1;" vertex="1" parent="Vrc9euXCKkjH1-e3UW8O-204">
          <mxGeometry width="30" height="30" as="geometry">
            <mxRectangle width="30" height="30" as="alternateBounds" />
          </mxGeometry>
        </mxCell>
        <mxCell id="Vrc9euXCKkjH1-e3UW8O-206" value="SealedRequest" style="shape=partialRectangle;connectable=0;fillColor=none;top=0;left=0;bottom=0;right=0;align=left;spacingLeft=6;overflow=hidden;whiteSpace=wrap;html=1;rounded=1;" vertex="1" parent="Vrc9euXCKkjH1-e3UW8O-204">
          <mxGeometry x="30" width="150" height="30" as="geometry">
            <mxRectangle width="150" height="30" as="alternateBounds" />
          </mxGeometry>
        </mxCell>
        <mxCell id="Vrc9euXCKkjH1-e3UW8O-207" value="" style="shape=tableRow;horizontal=0;startSize=0;swimlaneHead=0;swimlaneBody=0;fillColor=none;collapsible=0;dropTarget=0;points=[[0,0.5],[1,0.5]];portConstraint=eastwest;top=0;left=0;right=0;bottom=0;rounded=1;" vertex="1" parent="Vrc9euXCKkjH1-e3UW8O-197">
          <mxGeometry y="120" width="180" height="30" as="geometry" />
        </mxCell>
        <mxCell id="Vrc9euXCKkjH1-e3UW8O-208" value="" style="shape=partialRectangle;connectable=0;fillColor=none;top=0;left=0;bottom=0;right=0;editable=1;overflow=hidden;whiteSpace=wrap;html=1;rounded=1;" vertex="1" parent="Vrc9euXCKkjH1-e3UW8O-207">
          <mxGeometry width="30" height="30" as="geometry">
            <mxRectangle width="30" height="30" as="alternateBounds" />
          </mxGeometry>
        </mxCell>
        <mxCell id="Vrc9euXCKkjH1-e3UW8O-209" value="UnpaidRequest" style="shape=partialRectangle;connectable=0;fillColor=none;top=0;left=0;bottom=0;right=0;align=left;spacingLeft=6;overflow=hidden;whiteSpace=wrap;html=1;rounded=1;" vertex="1" parent="Vrc9euXCKkjH1-e3UW8O-207">
          <mxGeometry x="30" width="150" height="30" as="geometry">
            <mxRectangle width="150" height="30" as="alternateBounds" />
          </mxGeometry>
        </mxCell>
        <mxCell id="Vrc9euXCKkjH1-e3UW8O-213" value="" style="shape=tableRow;horizontal=0;startSize=0;swimlaneHead=0;swimlaneBody=0;fillColor=none;collapsible=0;dropTarget=0;points=[[0,0.5],[1,0.5]];portConstraint=eastwest;top=0;left=0;right=0;bottom=0;rounded=1;" vertex="1" parent="Vrc9euXCKkjH1-e3UW8O-197">
          <mxGeometry y="150" width="180" height="30" as="geometry" />
        </mxCell>
        <mxCell id="Vrc9euXCKkjH1-e3UW8O-214" value="" style="shape=partialRectangle;connectable=0;fillColor=none;top=0;left=0;bottom=0;right=0;editable=1;overflow=hidden;whiteSpace=wrap;html=1;rounded=1;" vertex="1" parent="Vrc9euXCKkjH1-e3UW8O-213">
          <mxGeometry width="30" height="30" as="geometry">
            <mxRectangle width="30" height="30" as="alternateBounds" />
          </mxGeometry>
        </mxCell>
        <mxCell id="Vrc9euXCKkjH1-e3UW8O-215" value="ApprovalRequest" style="shape=partialRectangle;connectable=0;fillColor=none;top=0;left=0;bottom=0;right=0;align=left;spacingLeft=6;overflow=hidden;whiteSpace=wrap;html=1;rounded=1;" vertex="1" parent="Vrc9euXCKkjH1-e3UW8O-213">
          <mxGeometry x="30" width="150" height="30" as="geometry">
            <mxRectangle width="150" height="30" as="alternateBounds" />
          </mxGeometry>
        </mxCell>
        <mxCell id="Vrc9euXCKkjH1-e3UW8O-210" value="" style="shape=tableRow;horizontal=0;startSize=0;swimlaneHead=0;swimlaneBody=0;fillColor=none;collapsible=0;dropTarget=0;points=[[0,0.5],[1,0.5]];portConstraint=eastwest;top=0;left=0;right=0;bottom=0;rounded=1;" vertex="1" parent="Vrc9euXCKkjH1-e3UW8O-197">
          <mxGeometry y="180" width="180" height="20" as="geometry" />
        </mxCell>
        <mxCell id="Vrc9euXCKkjH1-e3UW8O-211" value="" style="shape=partialRectangle;connectable=0;fillColor=none;top=0;left=0;bottom=0;right=0;editable=1;overflow=hidden;whiteSpace=wrap;html=1;rounded=1;" vertex="1" parent="Vrc9euXCKkjH1-e3UW8O-210">
          <mxGeometry width="30" height="20" as="geometry">
            <mxRectangle width="30" height="20" as="alternateBounds" />
          </mxGeometry>
        </mxCell>
        <mxCell id="Vrc9euXCKkjH1-e3UW8O-212" value="" style="shape=partialRectangle;connectable=0;fillColor=none;top=0;left=0;bottom=0;right=0;align=left;spacingLeft=6;overflow=hidden;whiteSpace=wrap;html=1;rounded=1;" vertex="1" parent="Vrc9euXCKkjH1-e3UW8O-210">
          <mxGeometry x="30" width="150" height="20" as="geometry">
            <mxRectangle width="150" height="20" as="alternateBounds" />
          </mxGeometry>
        </mxCell>
      </root>
    </mxGraphModel>
  </diagram>
</mxfile>
